<?xml version="1.0" encoding="UTF-8"?>
<svg version="1.1" xmlns="http://www.w3.org/2000/svg" width="267" height="45">
<path d="M0 0 C4.875 3.75 4.875 3.75 6 6 C6.66 4.02 7.32 2.04 8 0 C12.78715623 -0.07415168 17.57397827 -0.12860204 22.36157227 -0.16479492 C23.99021223 -0.17988243 25.61881156 -0.20035506 27.24731445 -0.22631836 C29.58815535 -0.26270449 31.92845919 -0.2797262 34.26953125 -0.29296875 C34.99775589 -0.30845261 35.72598053 -0.32393646 36.47627258 -0.33988953 C41.50703572 -0.34156472 41.50703572 -0.34156472 43.97143555 1.3659668 C45.41586398 3.66066404 45.19541687 5.32930276 45 8 C45 9.32 45 10.64 45 12 C45.33 8.04 45.66 4.08 46 0 C52.625 -0.25 52.625 -0.25 56 2 C56.66 1.34 57.32 0.68 58 0 C61.36465641 -0.30587786 63.93290775 -0.53354612 67 1 C68.65937302 4.31874603 67.58097478 7.39795636 67 11 C67.495 11.495 67.495 11.495 68 12 C68.33 8.37 68.66 4.74 69 1 C70.32 1 71.64 1 73 1 C73 6.28 73 11.56 73 17 C70.36 17 67.72 17 65 17 C63 14.5 63 14.5 62 12 C61.67 13.65 61.34 15.3 61 17 C59.68 17 58.36 17 57 17 C56.505 13.535 56.505 13.535 56 10 C54.02 10.33 52.04 10.66 50 11 C50 12.98 50 14.96 50 17 C44.62694301 17.44041451 44.62694301 17.44041451 42 17 C40 14.5 40 14.5 39 12 C38.67 13.65 38.34 15.3 38 17 C35.68756208 17.02685412 33.3750373 17.04632841 31.0625 17.0625 C29.77472656 17.07410156 28.48695313 17.08570312 27.16015625 17.09765625 C24 17 24 17 23 16 C22.92755947 13.98035801 22.91622812 11.95832876 22.9375 9.9375 C22.94652344 8.83277344 22.95554688 7.72804688 22.96484375 6.58984375 C22.97644531 5.73519531 22.98804688 4.88054688 23 4 C21.68 4 20.36 4 19 4 C19 8.29 19 12.58 19 17 C17.68 17 16.36 17 15 17 C15 12.71 15 8.42 15 4 C13.68 4 12.36 4 11 4 C11 8.29 11 12.58 11 17 C6.70574125 15.92643531 6.25259529 15.4915227 4 12 C3.67 13.65 3.34 15.3 3 17 C1.68 17 0.36 17 -1 17 C-1.02684679 14.35409986 -1.04676357 11.70846904 -1.0625 9.0625 C-1.07087891 8.30775391 -1.07925781 7.55300781 -1.08789062 6.77539062 C-1.09652441 4.85005687 -1.05224333 2.92464419 -1 1 C-0.67 0.67 -0.34 0.34 0 0 Z M27 4 C27 4.66 27 5.32 27 6 C28.65 6 30.3 6 32 6 C32 7.32 32 8.64 32 10 C30.35 10 28.7 10 27 10 C27 10.99 27 11.98 27 13 C29.31 13 31.62 13 34 13 C34 10.03 34 7.06 34 4 C31.69 4 29.38 4 27 4 Z M38 4 C38 4.99 38 5.98 38 7 C38.99 6.67 39.98 6.34 41 6 C40.67 5.34 40.34 4.68 40 4 C39.34 4 38.68 4 38 4 Z M50 4 C50 4.99 50 5.98 50 7 C50.99 6.67 51.98 6.34 53 6 C52.67 5.34 52.34 4.68 52 4 C51.34 4 50.68 4 50 4 Z M61 4 C61 4.99 61 5.98 61 7 C61.99 6.67 62.98 6.34 64 6 C63.67 5.34 63.34 4.68 63 4 C62.34 4 61.68 4 61 4 Z " fill="#141210" transform="translate(143,13)"/>
<path d="M0 0 C0.99 0.33 1.98 0.66 3 1 C3.33 1.99 3.66 2.98 4 4 C5.32 2.68 6.64 1.36 8 0 C8.99 1.32 9.98 2.64 11 4 C11.33 3.01 11.66 2.02 12 1 C17.625 -0.125 17.625 -0.125 21 1 C21.33 1.66 21.66 2.32 22 3 C22.53625 2.484375 23.0725 1.96875 23.625 1.4375 C26 0 26 0 29.125 0.1875 C32 1 32 1 34 3 C34.99 2.01 35.98 1.02 37 0 C39.475 2.97 39.475 2.97 42 6 C42.66 4.02 43.32 2.04 44 0 C47 1 47 1 48 3 C48.515625 2.484375 49.03125 1.96875 49.5625 1.4375 C52.9710271 -0.57265701 55.23106857 0.20272604 59 1 C59 2.32 59 3.64 59 5 C57.02 5 55.04 5 53 5 C51.99782936 8.58327753 51.99782936 8.58327753 53 12 C53.99 12.33 54.98 12.66 56 13 C56 12.34 56 11.68 56 11 C55.34 11 54.68 11 54 11 C54 9.68 54 8.36 54 7 C55.98 7 57.96 7 60 7 C60 9.97 60 12.94 60 16 C56.95016004 17.52491998 54.3576631 17.23562548 51 17 C49.0625 15.5 49.0625 15.5 48 14 C47.67 14.99 47.34 15.98 47 17 C44.11424181 16.60196439 43.17810487 16.20990931 41.25 13.9375 C40.8375 13.298125 40.425 12.65875 40 12 C39.67 13.65 39.34 15.3 39 17 C37.68 17 36.36 17 35 17 C34.505 15.515 34.505 15.515 34 14 C33.62875 14.495 33.2575 14.99 32.875 15.5 C30.1984132 17.64126944 28.33938377 17.34785248 25 17 C24.01 16.34 23.02 15.68 22 15 C21.67 15.66 21.34 16.32 21 17 C19.68 17 18.36 17 17 17 C16.67 13.37 16.34 9.74 16 6 C15.01 9.3 14.02 12.6 13 16 C11.68 16 10.36 16 9 16 C8.34 15.01 7.68 14.02 7 13 C6.34 14.32 5.68 15.64 5 17 C4.01 16.67 3.02 16.34 2 16 C1.11959804 13.45301774 0.4240961 11.04808726 -0.1875 8.4375 C-0.36474609 7.72658203 -0.54199219 7.01566406 -0.72460938 6.28320312 C-1.16122323 4.52494731 -1.58210434 2.76279845 -2 1 C-1.34 0.67 -0.68 0.34 0 0 Z M27 4 C26.34 4.66 25.68 5.32 25 6 C25.32326553 9.59679066 25.32326553 9.59679066 26 13 C27.32 12.67 28.64 12.34 30 12 C30 9.69 30 7.38 30 5 C29.01 4.67 28.02 4.34 27 4 Z " fill="#1F2B2C" transform="translate(65,13)"/>
<path d="M0 0 C4.875 3.75 4.875 3.75 6 6 C6.66 4.02 7.32 2.04 8 0 C16.25 0 24.5 0 33 0 C33.495 1.98 33.495 1.98 34 4 C31.69 4 29.38 4 27 4 C27 4.66 27 5.32 27 6 C28.65 6 30.3 6 32 6 C32 7.32 32 8.64 32 10 C30.35 10 28.7 10 27 10 C27 10.99 27 11.98 27 13 C29.31 13 31.62 13 34 13 C34 13.99 34 14.98 34 16 C34.66 16 35.32 16 36 16 C36 11.71 36 7.42 36 3 C36.33 3 36.66 3 37 3 C37 4.65 37 6.3 37 8 C37.66 8.33 38.32 8.66 39 9 C38.34 9 37.68 9 37 9 C37.495 12.96 37.495 12.96 38 17 C35.68756208 17.02685412 33.3750373 17.04632841 31.0625 17.0625 C29.77472656 17.07410156 28.48695313 17.08570312 27.16015625 17.09765625 C24 17 24 17 23 16 C22.92755947 13.98035801 22.91622812 11.95832876 22.9375 9.9375 C22.94652344 8.83277344 22.95554688 7.72804688 22.96484375 6.58984375 C22.97644531 5.73519531 22.98804688 4.88054688 23 4 C21.68 4 20.36 4 19 4 C19 8.29 19 12.58 19 17 C17.68 17 16.36 17 15 17 C15 12.71 15 8.42 15 4 C13.68 4 12.36 4 11 4 C11 8.29 11 12.58 11 17 C6.70574125 15.92643531 6.25259529 15.4915227 4 12 C3.67 13.65 3.34 15.3 3 17 C1.68 17 0.36 17 -1 17 C-1.02684679 14.35409986 -1.04676357 11.70846904 -1.0625 9.0625 C-1.07087891 8.30775391 -1.07925781 7.55300781 -1.08789062 6.77539062 C-1.09652441 4.85005687 -1.05224333 2.92464419 -1 1 C-0.67 0.67 -0.34 0.34 0 0 Z " fill="#1D1C1A" transform="translate(143,13)"/>
<path d="M0 0 C0.928125 0.20625 1.85625 0.4125 2.8125 0.625 C2.4825 1.945 2.1525 3.265 1.8125 4.625 C0.4925 4.295 -0.8275 3.965 -2.1875 3.625 C-0.5375 5.275 1.1125 6.925 2.8125 8.625 C2.956875 7.325625 3.10125 6.02625 3.25 4.6875 C3.6875 0.75 3.6875 0.75 4.8125 -0.375 C12.33488806 -0.61380597 12.33488806 -0.61380597 14.8125 0.625 C17.1525417 0.34258117 19.48754723 0.01249213 21.8125 -0.375 C22.1425 1.275 22.4725 2.925 22.8125 4.625 C21.4925 4.625 20.1725 4.625 18.8125 4.625 C19.658125 5.32625 20.50375 6.0275 21.375 6.75 C23.8125 9.625 23.8125 9.625 23.75 12.875 C22.8125 15.625 22.8125 15.625 20.8125 16.625 C17.92879667 16.69694869 15.07010336 16.71791708 12.1875 16.6875 C11.38570312 16.68298828 10.58390625 16.67847656 9.7578125 16.67382812 C7.77600994 16.66203168 5.79424567 16.64409605 3.8125 16.625 C3.4825 15.965 3.1525 15.305 2.8125 14.625 C2.1525 15.285 1.4925 15.945 0.8125 16.625 C-2.3125 16.75 -2.3125 16.75 -5.1875 16.625 C-5.5175 14.975 -5.8475 13.325 -6.1875 11.625 C-3.7125 12.12 -3.7125 12.12 -1.1875 12.625 C-2.0125 11.92375 -2.8375 11.2225 -3.6875 10.5 C-6.1875 7.625 -6.1875 7.625 -6.6875 4.4375 C-6.5225 3.509375 -6.3575 2.58125 -6.1875 1.625 C-3.1875 -0.375 -3.1875 -0.375 0 0 Z M7.8125 3.625 C7.8125 4.285 7.8125 4.945 7.8125 5.625 C9.1325 5.625 10.4525 5.625 11.8125 5.625 C11.8125 6.945 11.8125 8.265 11.8125 9.625 C10.4925 9.625 9.1725 9.625 7.8125 9.625 C7.8125 10.615 7.8125 11.605 7.8125 12.625 C11.7725 12.625 15.7325 12.625 19.8125 12.625 C19.008125 11.696875 18.20375 10.76875 17.375 9.8125 C15.48541506 7.63220969 14.75470855 6.45162565 13.8125 3.625 C11.8325 3.625 9.8525 3.625 7.8125 3.625 Z " fill="#252727" transform="translate(223.1875,13.375)"/>
<path d="M0 0 C2.7839183 1.39195915 2.97898997 3.15575779 4 6 C4.99 4.02 5.98 2.04 7 0 C7.66 0.33 8.32 0.66 9 1 C9.90591398 3.95820059 10.40058396 6.96010437 11 10 C12.65 6.7 14.3 3.4 16 0 C16.99 0.33 17.98 0.66 19 1 C20.04409043 3.32640994 20.89690418 5.52749642 21.6875 7.9375 C21.91244141 8.58396484 22.13738281 9.23042969 22.36914062 9.89648438 C24 14.67009403 24 14.67009403 24 17 C22.35 16.67 20.7 16.34 19 16 C19 15.34 19 14.68 19 14 C17.68 14 16.36 14 15 14 C14.67 14.99 14.34 15.98 14 17 C12.02 17 10.04 17 8 17 C7.67 16.34 7.34 15.68 7 15 C5.02 15.99 5.02 15.99 3 17 C2.67 15.68 2.34 14.36 2 13 C1.34 13 0.68 13 0 13 C0 14.32 0 15.64 0 17 C-2.97 17 -5.94 17 -9 17 C-9 15.35 -9 13.7 -9 12 C-7.68 12 -6.36 12 -5 12 C-5 12.66 -5 13.32 -5 14 C-4.34 14 -3.68 14 -3 14 C-2.95101562 13.24074219 -2.90203125 12.48148438 -2.8515625 11.69921875 C-2.77679688 10.70535156 -2.70203125 9.71148437 -2.625 8.6875 C-2.55539063 7.70136719 -2.48578125 6.71523438 -2.4140625 5.69921875 C-2 3 -2 3 0 0 Z " fill="#232526" transform="translate(41,13)"/>
<path d="M0 0 C0 1.32 0 2.64 0 4 C-1.98 4 -3.96 4 -6 4 C-7.00217064 7.58327753 -7.00217064 7.58327753 -6 11 C-5.01 11.33 -4.02 11.66 -3 12 C-3 11.34 -3 10.68 -3 10 C-3.66 10 -4.32 10 -5 10 C-5 8.68 -5 7.36 -5 6 C-3.02 6 -1.04 6 1 6 C1 8.97 1 11.94 1 15 C-2.12860495 16.56430248 -4.55602925 16.35627284 -8 16 C-10.5 14.0625 -10.5 14.0625 -12 11 C-12.29470737 6.79305224 -11.97094876 3.26970222 -9.375 -0.125 C-6.01685111 -1.36221275 -3.44563423 -0.72888416 0 0 Z " fill="#2C2B27" transform="translate(124,14)"/>
<path d="M0 0 C0.99 0.33 1.98 0.66 3 1 C3.33 1.99 3.66 2.98 4 4 C5.32 2.68 6.64 1.36 8 0 C8.99 1.32 9.98 2.64 11 4 C11.33 3.01 11.66 2.02 12 1 C12.99 0.67 13.98 0.34 15 0 C14.44854729 5.23880078 13.57077907 9.97350697 12 15 C11.34 15 10.68 15 10 15 C9.34 13.02 8.68 11.04 8 9 C7.87625 9.5775 7.7525 10.155 7.625 10.75 C6.99351176 13.02335767 6.11141809 14.9253529 5 17 C4.01 16.67 3.02 16.34 2 16 C1.11959804 13.45301774 0.4240961 11.04808726 -0.1875 8.4375 C-0.36474609 7.72658203 -0.54199219 7.01566406 -0.72460938 6.28320312 C-1.16122323 4.52494731 -1.58210434 2.76279845 -2 1 C-1.34 0.67 -0.68 0.34 0 0 Z " fill="#161615" transform="translate(65,13)"/>
<path d="M0 0 C7 0 7 0 10 1.9375 C12.45490835 5.69657841 12.4196772 7.65561009 11.63671875 11.97265625 C11 14 11 14 9.375 16.0625 C7 17 7 17 0 17 C0 11.39 0 5.78 0 0 Z M4 4 C4 6.97 4 9.94 4 13 C4.99 12.67 5.98 12.34 7 12 C7.33 10.02 7.66 8.04 8 6 C6.68 5.34 5.36 4.68 4 4 Z " fill="#0E1822" transform="translate(19,13)"/>
<path d="M0 0 C3.625 0.25 3.625 0.25 5.5625 1.4375 C6.97814432 3.85242266 6.82748521 5.48270207 6.625 8.25 C6.625 9.57 6.625 10.89 6.625 12.25 C6.955 8.62 7.285 4.99 7.625 1.25 C7.955 1.25 8.285 1.25 8.625 1.25 C8.625 6.2 8.625 11.15 8.625 16.25 C6.625 16.25 4.625 16.25 2.625 16.25 C1.965 14.93 1.305 13.61 0.625 12.25 C-0.035 13.57 -0.695 14.89 -1.375 16.25 C-1.375 13.61 -1.375 10.97 -1.375 8.25 C-1.705 10.89 -2.035 13.53 -2.375 16.25 C-3.035 16.25 -3.695 16.25 -4.375 16.25 C-4.40185095 13.77076199 -4.42176547 11.2918116 -4.4375 8.8125 C-4.45006836 7.75192383 -4.45006836 7.75192383 -4.46289062 6.66992188 C-4.47153588 4.86306441 -4.42720011 3.05612397 -4.375 1.25 C-3.375 0.25 -3.375 0.25 0 0 Z M-0.375 4.25 C-0.375 5.24 -0.375 6.23 -0.375 7.25 C0.615 6.92 1.605 6.59 2.625 6.25 C2.295 5.59 1.965 4.93 1.625 4.25 C0.965 4.25 0.305 4.25 -0.375 4.25 Z " fill="#323432" transform="translate(181.375,12.75)"/>
<path d="M0 0 C0.99 0.33 1.98 0.66 3 1 C3 6.28 3 11.56 3 17 C0.36 17 -2.28 17 -5 17 C-7 14.5 -7 14.5 -8 12 C-8.66 13.32 -9.32 14.64 -10 16 C-10 11.71 -10 7.42 -10 3 C-9.67 4.32 -9.34 5.64 -9 7 C-8.34 6.34 -7.68 5.68 -7 5 C-7.33 4.34 -7.66 3.68 -8 3 C-6.35 3.33 -4.7 3.66 -3 4 C-3.020625 5.134375 -3.04125 6.26875 -3.0625 7.4375 C-3.41577477 10.81575674 -3.41577477 10.81575674 -2 12 C-1.93941406 11.21753906 -1.87882813 10.43507813 -1.81640625 9.62890625 C-1.73261719 8.61699219 -1.64882812 7.60507812 -1.5625 6.5625 C-1.48128906 5.55316406 -1.40007812 4.54382813 -1.31640625 3.50390625 C-1 1 -1 1 0 0 Z " fill="#262A2C" transform="translate(213,13)"/>
<path d="M0 0 C2.05078125 0.03255208 4.1015625 0.06510417 6.15234375 0.09765625 C6.48234375 1.41765625 6.81234375 2.73765625 7.15234375 4.09765625 C5.17234375 4.09765625 3.19234375 4.09765625 1.15234375 4.09765625 C1.15234375 4.75765625 1.15234375 5.41765625 1.15234375 6.09765625 C2.80234375 6.09765625 4.45234375 6.09765625 6.15234375 6.09765625 C6.15234375 7.41765625 6.15234375 8.73765625 6.15234375 10.09765625 C4.50234375 10.09765625 2.85234375 10.09765625 1.15234375 10.09765625 C1.15234375 11.08765625 1.15234375 12.07765625 1.15234375 13.09765625 C3.13234375 13.09765625 5.11234375 13.09765625 7.15234375 13.09765625 C7.15234375 14.41765625 7.15234375 15.73765625 7.15234375 17.09765625 C3.85234375 17.09765625 0.55234375 17.09765625 -2.84765625 17.09765625 C-2.87450304 14.45175611 -2.89441982 11.80612529 -2.91015625 9.16015625 C-2.91853516 8.40541016 -2.92691406 7.65066406 -2.93554688 6.87304688 C-2.94418066 4.94771312 -2.89989958 3.02230044 -2.84765625 1.09765625 C-1.84765625 0.09765625 -1.84765625 0.09765625 0 0 Z " fill="#1D1A15" transform="translate(133.84765625,12.90234375)"/>
<path d="M0 0 C2.97 0 5.94 0 9 0 C9.33 1.32 9.66 2.64 10 4 C7.69 4 5.38 4 3 4 C3 4.66 3 5.32 3 6 C4.65 6 6.3 6 8 6 C8 7.32 8 8.64 8 10 C6.35 10 4.7 10 3 10 C3 10.99 3 11.98 3 13 C5.31 13 7.62 13 10 13 C10 13.99 10 14.98 10 16 C10.66 16 11.32 16 12 16 C12 11.71 12 7.42 12 3 C12.33 3 12.66 3 13 3 C13 4.65 13 6.3 13 8 C13.66 8.33 14.32 8.66 15 9 C14.34 9 13.68 9 13 9 C13.33 11.64 13.66 14.28 14 17 C9.38 17 4.76 17 0 17 C0 11.39 0 5.78 0 0 Z " fill="#020508" transform="translate(167,13)"/>
<path d="M0 0 C0.928125 0.20625 1.85625 0.4125 2.8125 0.625 C2.4825 1.945 2.1525 3.265 1.8125 4.625 C0.4925 4.295 -0.8275 3.965 -2.1875 3.625 C-0.5375 5.275 1.1125 6.925 2.8125 8.625 C3.1425 5.985 3.4725 3.345 3.8125 0.625 C4.1425 0.625 4.4725 0.625 4.8125 0.625 C4.8125 5.575 4.8125 10.525 4.8125 15.625 C3.8225 15.625 2.8325 15.625 1.8125 15.625 C1.4825 15.955 1.1525 16.285 0.8125 16.625 C-1.18708364 16.66580783 -3.18795254 16.66754356 -5.1875 16.625 C-5.5175 14.975 -5.8475 13.325 -6.1875 11.625 C-3.7125 12.12 -3.7125 12.12 -1.1875 12.625 C-2.0125 11.92375 -2.8375 11.2225 -3.6875 10.5 C-6.1875 7.625 -6.1875 7.625 -6.6875 4.4375 C-6.5225 3.509375 -6.3575 2.58125 -6.1875 1.625 C-3.1875 -0.375 -3.1875 -0.375 0 0 Z " fill="#2A2824" transform="translate(223.1875,13.375)"/>
<path d="M0 0 C0.33 0.66 0.66 1.32 1 2 C2.32 1.34 3.64 0.68 5 0 C4.484375 0.845625 3.96875 1.69125 3.4375 2.5625 C1.74084099 6.61972807 2.02392484 8.77034099 3 13 C3.33 13.66 3.66 14.32 4 15 C3.01 14.67 2.02 14.34 1 14 C0.67 14.66 0.34 15.32 0 16 C-1.32 16 -2.64 16 -4 16 C-4.33 12.37 -4.66 8.74 -5 5 C-5.99 8.3 -6.98 11.6 -8 15 C-9.32 15 -10.64 15 -12 15 C-13.20628008 12.66785852 -14.1654738 10.50357861 -15 8 C-14.34 7.34 -13.68 6.68 -13 6 C-11.74335022 8.90600261 -11 10.79604584 -11 14 C-10.34 14 -9.68 14 -9 14 C-8.814375 12.4840625 -8.814375 12.4840625 -8.625 10.9375 C-8.02027499 7.12773244 -7.30698236 3.63050656 -6 0 C-3 -1 -3 -1 0 0 Z " fill="#292825" transform="translate(86,14)"/>
<path d="M0 0 C2.64 0 5.28 0 8 0 C8 1.32 8 2.64 8 4 C6.35 4 4.7 4 3 4 C3 4.66 3 5.32 3 6 C4.32 6 5.64 6 7 6 C7 7.32 7 8.64 7 10 C5.68 10 4.36 10 3 10 C3 10.99 3 11.98 3 13 C5.31 13 7.62 13 10 13 C9.01 13.495 9.01 13.495 8 14 C8.33 14.99 8.66 15.98 9 17 C5.7 17 2.4 17 -1 17 C-0.67 11.39 -0.34 5.78 0 0 Z " fill="#040E15" transform="translate(228,13)"/>
<path d="M0 0 C0.99 0.33 1.98 0.66 3 1 C4.04409043 3.32640994 4.89690418 5.52749642 5.6875 7.9375 C5.91244141 8.58396484 6.13738281 9.23042969 6.36914062 9.89648438 C8 14.67009403 8 14.67009403 8 17 C6.35 16.67 4.7 16.34 3 16 C3 15.34 3 14.68 3 14 C0.03 13.505 0.03 13.505 -3 13 C-3.93045933 10.44855176 -4.08564091 9.25993522 -3.22265625 6.640625 C-2.83980469 5.85171875 -2.45695312 5.0628125 -2.0625 4.25 C-1.68222656 3.45078125 -1.30195312 2.6515625 -0.91015625 1.828125 C-0.60980469 1.22484375 -0.30945312 0.6215625 0 0 Z " fill="#272724" transform="translate(57,13)"/>
<path d="M0 0 C0 0.66 0 1.32 0 2 C1.32 2.66 2.64 3.32 4 4 C4.05447047 5.41623216 4.09300508 6.83308191 4.125 8.25 C4.14820312 9.03890625 4.17140625 9.8278125 4.1953125 10.640625 C3.9828378 13.20731941 3.28654105 14.7916067 2 17 C0.02 17 -1.96 17 -4 17 C-6.12093671 13.52166379 -7.01707801 11.49526217 -6.875 7.375 C-4.96296296 0 -4.96296296 0 0 0 Z M-2 4 C-2.66 4.66 -3.32 5.32 -4 6 C-3.67673447 9.59679066 -3.67673447 9.59679066 -3 13 C-1.68 12.67 -0.36 12.34 1 12 C1 9.69 1 7.38 1 5 C0.01 4.67 -0.98 4.34 -2 4 Z " fill="#161616" transform="translate(94,13)"/>
<path d="M0 0 C2.31 0 4.62 0 7 0 C9.29013653 3.4352048 9.17842973 4.985331 9 9 C7.35 9.66 5.7 10.32 4 11 C4 12.98 4 14.96 4 17 C1.36 17 -1.28 17 -4 17 C-3.01 15.515 -3.01 15.515 -2 14 C-1.01 14.66 -0.02 15.32 1 16 C0.67 10.72 0.34 5.44 0 0 Z M4 4 C4 4.99 4 5.98 4 7 C4.99 6.67 5.98 6.34 7 6 C6.67 5.34 6.34 4.68 6 4 C5.34 4 4.68 4 4 4 Z " fill="#040303" transform="translate(189,13)"/>
<path d="M0 0 C4.875 3.75 4.875 3.75 6 6 C6.33 4.35 6.66 2.7 7 1 C7.33 1 7.66 1 8 1 C8 3.97 8 6.94 8 10 C7.01 10 6.02 10 5 10 C4.34 12.31 3.68 14.62 3 17 C1.68 17 0.36 17 -1 17 C-1.02684679 14.35409986 -1.04676357 11.70846904 -1.0625 9.0625 C-1.07087891 8.30775391 -1.07925781 7.55300781 -1.08789062 6.77539062 C-1.09652441 4.85005687 -1.05224333 2.92464419 -1 1 C-0.67 0.67 -0.34 0.34 0 0 Z " fill="#2C2F31" transform="translate(143,13)"/>
<path d="M0 0 C0.33 0 0.66 0 1 0 C1.66 3.63 2.32 7.26 3 11 C3.66 11 4.32 11 5 11 C4.67 12.32 4.34 13.64 4 15 C2 12 2 12 1 9 C0.67 11.64 0.34 14.28 0 17 C-2.97 17 -5.94 17 -9 17 C-9 15.35 -9 13.7 -9 12 C-7.68 12 -6.36 12 -5 12 C-5 12.66 -5 13.32 -5 14 C-4.34 14 -3.68 14 -3 14 C-2.95101562 13.24074219 -2.90203125 12.48148438 -2.8515625 11.69921875 C-2.77679688 10.70535156 -2.70203125 9.71148437 -2.625 8.6875 C-2.55539063 7.70136719 -2.48578125 6.71523438 -2.4140625 5.69921875 C-2 3 -2 3 0 0 Z " fill="#302516" transform="translate(41,13)"/>
<path d="M0 0 C0.99 0.33 1.98 0.66 3 1 C3 6.28 3 11.56 3 17 C0.36 17 -2.28 17 -5 17 C-4.01 15.515 -4.01 15.515 -3 14 C-2.01 14.66 -1.02 15.32 0 16 C-0.33 15.34 -0.66 14.68 -1 14 C-1.09663965 11.81423854 -1.12980327 9.62539152 -1.125 7.4375 C-1.12757813 6.26058594 -1.13015625 5.08367188 -1.1328125 3.87109375 C-1 1 -1 1 0 0 Z " fill="#22221E" transform="translate(213,13)"/>
<path d="M0 0 C2.64 0 5.28 0 8 0 C8.33 1.32 8.66 2.64 9 4 C7.02 4 5.04 4 3 4 C3 4.66 3 5.32 3 6 C4.65 6 6.3 6 8 6 C8 7.32 8 8.64 8 10 C6.35 10 4.7 10 3 10 C2.34 11.32 1.68 12.64 1 14 C0.67 9.38 0.34 4.76 0 0 Z " fill="#020508" transform="translate(132,13)"/>
<path d="M0 0 C3.5625 0.1875 3.5625 0.1875 5.5625 2.1875 C2.5625 4.1875 2.5625 4.1875 -2.4375 3.1875 C-2.4375 7.4775 -2.4375 11.7675 -2.4375 16.1875 C-3.0975 16.1875 -3.7575 16.1875 -4.4375 16.1875 C-4.46435095 13.70826199 -4.48426547 11.2293116 -4.5 8.75 C-4.51256836 7.68942383 -4.51256836 7.68942383 -4.52539062 6.60742188 C-4.53403588 4.80056441 -4.48970011 2.99362397 -4.4375 1.1875 C-3.4375 0.1875 -3.4375 0.1875 0 0 Z " fill="#2A261E" transform="translate(181.4375,12.8125)"/>
<path d="M0 0 C4.3590077 3.48720616 4.94552183 6.72760915 6 12 C4.35 11.67 2.7 11.34 1 11 C1 10.34 1 9.68 1 9 C-1.97 8.505 -1.97 8.505 -5 8 C-3.36587557 6.29159719 -2.13093906 5.06546953 0 4 C0 2.68 0 1.36 0 0 Z " fill="#0A0C0E" transform="translate(59,18)"/>
<path d="M0 0 C1.9375 0.75 1.9375 0.75 4 2 C4.75 4.125 4.75 4.125 5 6 C5.66 5.34 6.32 4.68 7 4 C6.51020408 10.48979592 6.51020408 10.48979592 4.0625 12.9375 C2 14 2 14 0 14 C0.144375 13.29875 0.28875 12.5975 0.4375 11.875 C0.623125 10.92625 0.80875 9.9775 1 9 C1.226875 7.96875 1.45375 6.9375 1.6875 5.875 C2.33229486 2.80363259 2.33229486 2.80363259 0 0 Z " fill="#282825" transform="translate(24,16)"/>
<path d="M0 0 C0.99 0.33 1.98 0.66 3 1 C3.73046875 3.06640625 3.73046875 3.06640625 4.1875 5.5625 C4.34605469 6.38878906 4.50460938 7.21507812 4.66796875 8.06640625 C4.77753906 8.70449219 4.88710937 9.34257812 5 10 C4.34 9.67 3.68 9.34 3 9 C3 10.98 3 12.96 3 15 C0.99006295 11.98509443 0.27376659 9.7850073 -0.625 6.3125 C-0.88539062 5.31863281 -1.14578125 4.32476562 -1.4140625 3.30078125 C-1.60742188 2.54152344 -1.80078125 1.78226563 -2 1 C-1.34 0.67 -0.68 0.34 0 0 Z " fill="#292722" transform="translate(65,13)"/>
<path d="M0 0 C0.33 0 0.66 0 1 0 C1.66 5.61 2.32 11.22 3 17 C1.68 17 0.36 17 -1 17 C-1.02684679 14.35409986 -1.04676357 11.70846904 -1.0625 9.0625 C-1.07087891 8.30775391 -1.07925781 7.55300781 -1.08789062 6.77539062 C-1.09652441 4.85005687 -1.05224333 2.92464419 -1 1 C-0.67 0.67 -0.34 0.34 0 0 Z " fill="#241C14" transform="translate(143,13)"/>
<path d="M0 0 C0.598125 0.763125 1.19625 1.52625 1.8125 2.3125 C3.80400177 4.92207348 3.80400177 4.92207348 5.75 6.5 C7.53030442 8.6363653 7.21811874 10.30986889 7 13 C4.29120665 14.35439668 1.99066732 14.06501451 -1 14 C-0.67 13.01 -0.34 12.02 0 11 C1.65 11 3.3 11 5 11 C3.55746343 7.63408134 1.66735273 5.48952921 -1 3 C-0.67 2.01 -0.34 1.02 0 0 Z " fill="#040405" transform="translate(239,16)"/>
<path d="M0 0 C1.98 0 3.96 0 6 0 C6 2.97 6 5.94 6 9 C4.02 9.33 2.04 9.66 0 10 C0 9.34 0 8.68 0 8 C0.66 7.67 1.32 7.34 2 7 C2.65213292 4.97536745 2.65213292 4.97536745 3 3 C2.34 3 1.68 3 1 3 C0.67 2.01 0.34 1.02 0 0 Z " fill="#050A0F" transform="translate(119,20)"/>
<path d="M0 0 C1.65 0.99 3.3 1.98 5 3 C5.66 2.34 6.32 1.68 7 1 C7 5.95 7 10.9 7 16 C6.34 15.34 5.68 14.68 5 14 C3.02 14.99 3.02 14.99 1 16 C1.66 15.01 2.32 14.02 3 13 C3.35269679 10.78573142 3.35269679 10.78573142 3.3125 8.4375 C3.32925781 7.65246094 3.34601563 6.86742187 3.36328125 6.05859375 C3.24339844 5.37925781 3.12351562 4.69992188 3 4 C2.01 3.34 1.02 2.68 0 2 C0 1.34 0 0.68 0 0 Z " fill="#393F3E" transform="translate(94,13)"/>
<path d="M0 0 C0.5259375 0.7425 0.5259375 0.7425 1.0625 1.5 C3.94374289 3.73063966 6.47009026 3.19980621 10 3 C9.01 3.495 9.01 3.495 8 4 C8.33 4.99 8.66 5.98 9 7 C5.7 7 2.4 7 -1 7 C-0.67 4.69 -0.34 2.38 0 0 Z " fill="#000101" transform="translate(228,23)"/>
<path d="M0 0 C1.66666667 0 3.33333333 0 5 0 C5 4.95 5 9.9 5 15 C4.67 15 4.34 15 4 15 C3.67 13.02 3.34 11.04 3 9 C1.68 9.33 0.36 9.66 -1 10 C-0.67 9.34 -0.34 8.68 0 8 C0.66 8 1.32 8 2 8 C1.34 5.36 0.68 2.72 0 0 Z " fill="#333A3B" transform="translate(196,14)"/>
<path d="M0 0 C1.32 0.33 2.64 0.66 4 1 C3.67 1.33 3.34 1.66 3 2 C2.76472227 4.34987262 2.58613583 6.70556039 2.4375 9.0625 C2.35371094 10.35285156 2.26992188 11.64320312 2.18359375 12.97265625 C2.12300781 13.97167969 2.06242187 14.97070312 2 16 C1.34 16 0.68 16 0 16 C0 10.72 0 5.44 0 0 Z " fill="#2F241A" transform="translate(19,13)"/>
<path d="M0 0 C2.64 0 5.28 0 8 0 C8 1.32 8 2.64 8 4 C5.69 4 3.38 4 1 4 C0.67 4.99 0.34 5.98 0 7 C0 4.69 0 2.38 0 0 Z " fill="#000001" transform="translate(228,13)"/>
<path d="M0 0 C2.475 0.495 2.475 0.495 5 1 C5.33 2.65 5.66 4.3 6 6 C4.35 6.66 2.7 7.32 1 8 C1 9.65 1 11.3 1 13 C0.67 13 0.34 13 0 13 C0 8.71 0 4.42 0 0 Z M1 1 C1 2.65 1 4.3 1 6 C1.99 4.68 2.98 3.36 4 2 C3.01 1.67 2.02 1.34 1 1 Z " fill="#161C1F" transform="translate(192,16)"/>
<path d="M0 0 C0 0.66 0 1.32 0 2 C0.66 2 1.32 2 2 2 C1.67 2.66 1.34 3.32 1 4 C-0.65 4 -2.3 4 -4 4 C-4.66 6.64 -5.32 9.28 -6 12 C-6.66 11.67 -7.32 11.34 -8 11 C-6.94230769 -0 -6.94230769 -0 0 0 Z " fill="#050403" transform="translate(121,13)"/>
<path d="M0 0 C0.33 0 0.66 0 1 0 C1.66 3.63 2.32 7.26 3 11 C3.66 11 4.32 11 5 11 C4.67 12.32 4.34 13.64 4 15 C2 12 2 12 1 9 C0.34 9.66 -0.32 10.32 -1 11 C-1.14285714 3.57142857 -1.14285714 3.57142857 0 0 Z " fill="#020202" transform="translate(41,13)"/>
<path d="M0 0 C2.7839183 1.39195915 2.97898997 3.15575779 4 6 C4.66 5.34 5.32 4.68 6 4 C5.67 5.65 5.34 7.3 5 9 C4.01 8.67 3.02 8.34 2 8 C2 7.01 2 6.02 2 5 C1.34 5 0.68 5 0 5 C-0.33 5.99 -0.66 6.98 -1 8 C-0.67 5.36 -0.34 2.72 0 0 Z " fill="#2F3537" transform="translate(41,21)"/>
<path d="M0 0 C2 3 2 3 3 6 C2.0625 8.1875 2.0625 8.1875 1 10 C-0.98 10 -2.96 10 -5 10 C-4.67 9.01 -4.34 8.02 -4 7 C-1.9375 6.3125 -1.9375 6.3125 0 6 C0 4.02 0 2.04 0 0 Z " fill="#0F0A09" transform="translate(95,20)"/>
<path d="M0 0 C0.33 0 0.66 0 1 0 C1.06058594 0.74765625 1.12117188 1.4953125 1.18359375 2.265625 C1.26738281 3.25046875 1.35117187 4.2353125 1.4375 5.25 C1.51871094 6.22453125 1.59992187 7.1990625 1.68359375 8.203125 C1.95074584 10.56461753 2.35371968 12.71901065 3 15 C1.35 15 -0.3 15 -2 15 C-1.34 14.67 -0.68 14.34 0 14 C0 9.38 0 4.76 0 0 Z " fill="#000000" transform="translate(21,15)"/>
<path d="M0 0 C0.66 0.33 1.32 0.66 2 1 C1.67 5.62 1.34 10.24 1 15 C-0.32 13.68 -1.64 12.36 -3 11 C-2.01 10.67 -1.02 10.34 0 10 C0 6.7 0 3.4 0 0 Z " fill="#010100" transform="translate(151,13)"/>
<path d="M0 0 C0.66 0.33 1.32 0.66 2 1 C1.67 5.62 1.34 10.24 1 15 C0.01 14.01 -0.98 13.02 -2 12 C-2 11.34 -2 10.68 -2 10 C-1.34 10 -0.68 10 0 10 C0 6.7 0 3.4 0 0 Z " fill="#000000" transform="translate(109,13)"/>
<path d="M0 0 C1.32 0 2.64 0 4 0 C4 1.65 4 3.3 4 5 C2.68 5 1.36 5 0 5 C0 3.35 0 1.7 0 0 Z " fill="#222323" transform="translate(32,25)"/>
<path d="M0 0 C0.66 0.99 1.32 1.98 2 3 C-0.70879335 4.35439668 -3.00933268 4.06501451 -6 4 C-5.67 3.01 -5.34 2.02 -5 1 C-3.35 0.67 -1.7 0.34 0 0 Z " fill="#0B0D0F" transform="translate(244,26)"/>
</svg>
