<?xml version="1.0" encoding="UTF-8"?>
<svg version="1.1" xmlns="http://www.w3.org/2000/svg" width="267" height="45">
<path d="M0 0 C10.64453125 -0.390625 10.64453125 -0.390625 14 0 C15.94921875 2.015625 15.94921875 2.015625 17 4 C17.33 2.68 17.66 1.36 18 0 C23.23273331 -0.04935824 28.46533176 -0.08569949 33.69824219 -0.10986328 C35.47919067 -0.11993431 37.26012257 -0.13359185 39.04101562 -0.15087891 C41.59769783 -0.17507913 44.15416185 -0.18647184 46.7109375 -0.1953125 C47.90944839 -0.21079636 47.90944839 -0.21079636 49.13217163 -0.22659302 C51.0895722 -0.22699226 53.04643077 -0.12241069 55 0 C57 2 57 2 57.1875 4.5 C57 7 57 7 56 9 C56.495 9.99 56.495 9.99 57 11 C57.33 7.37 57.66 3.74 58 0 C61.66666667 0 65.33333333 0 69 0 C69.72316406 -0.02320313 70.44632812 -0.04640625 71.19140625 -0.0703125 C71.97386719 -0.08835937 72.75632812 -0.10640625 73.5625 -0.125 C74.34753906 -0.14820313 75.13257813 -0.17140625 75.94140625 -0.1953125 C78 0 78 0 80 2 C80.20872719 4.78302919 80.25640898 6.48718205 79 9 C79.495 9.99 79.495 9.99 80 11 C80.33 7.37 80.66 3.74 81 0 C82.32 0 83.64 0 85 0 C85 4.95 85 9.9 85 15 C78.9453125 15.1953125 78.9453125 15.1953125 77 15 C76.01 14.01 76.01 14.01 75 13 C74.67 13.66 74.34 14.32 74 15 C71.4375 15.625 71.4375 15.625 69 16 C68.505 12.535 68.505 12.535 68 9 C67.67 9.33 67.34 9.66 67 10 C65.33382885 10.04063832 63.66611905 10.042721 62 10 C62 11.65 62 13.3 62 15 C55.9453125 15.1953125 55.9453125 15.1953125 54 15 C53.34 14.34 52.68 13.68 52 13 C51.67 13.66 51.34 14.32 51 15 C45.72 15 40.44 15 35 15 C35 11.37 35 7.74 35 4 C33.68 4 32.36 4 31 4 C31 7.63 31 11.26 31 15 C29.68 15 28.36 15 27 15 C27 11.37 27 7.74 27 4 C25.68 4 24.36 4 23 4 C23 7.96 23 11.92 23 16 C18.70574125 14.92643531 18.25259529 14.4915227 16 11 C15.67 12.32 15.34 13.64 15 15 C10.05 15 5.1 15 0 15 C0 10.05 0 5.1 0 0 Z M4 4 C4 4.33 4 4.66 4 5 C5.65 5 7.3 5 9 5 C9 6.32 9 7.64 9 9 C7.35 9 5.7 9 4 9 C4 9.99 4 10.98 4 12 C6.31 12 8.62 12 11 12 C11 9.03 11 6.06 11 3 C8.66140564 3 6.29969577 3.60856242 4 4 Z M40 4 C41.32 4.33 42.64 4.66 44 5 C44 6.32 44 7.64 44 9 C42.68 9 41.36 9 40 9 C40 9.99 40 10.98 40 12 C41.98 12 43.96 12 46 12 C46 9.03 46 6.06 46 3 C43.97549079 3 41.97599474 3.59466775 40 4 Z M51 4 C51.33 4.66 51.66 5.32 52 6 C52.33 5.34 52.66 4.68 53 4 C52.34 4 51.68 4 51 4 Z M62 4 C62.33 4.99 62.66 5.98 63 7 C63.33 6.01 63.66 5.02 64 4 C63.34 4 62.68 4 62 4 Z M74 4 C74.33 4.66 74.66 5.32 75 6 C75.33 5.34 75.66 4.68 76 4 C75.34 4 74.68 4 74 4 Z " fill="#606361" transform="translate(131,14)"/>
<path d="M0 0 C1.65 0 3.3 0 5 0 C5.33 0.99 5.66 1.98 6 3 C6.66 2.01 7.32 1.02 8 0 C8.99 0 9.98 0 11 0 C11.66 0.99 12.32 1.98 13 3 C13.33 2.01 13.66 1.02 14 0 C16.97 0 19.94 0 23 0 C23.33 0.66 23.66 1.32 24 2 C24.99 1.34 25.98 0.68 27 0 C32.30875576 -0.55299539 32.30875576 -0.55299539 34.875 1.5 C35.24625 1.995 35.6175 2.49 36 3 C36.33 2.01 36.66 1.02 37 0 C38.875 0.3125 38.875 0.3125 41 1 C41.66 1.99 42.32 2.98 43 4 C43.33 2.68 43.66 1.36 44 0 C45.65 0 47.3 0 49 0 C49.495 1.485 49.495 1.485 50 3 C50.5259375 2.2575 50.5259375 2.2575 51.0625 1.5 C53.94374289 -0.73063966 56.47009026 -0.19980621 60 0 C60.495 2.475 60.495 2.475 61 5 C59.02 5 57.04 5 55 5 C53.98888907 8.04913228 53.98888907 8.04913228 55 11 C55.99 11.33 56.98 11.66 58 12 C58 11.34 58 10.68 58 10 C57.34 10 56.68 10 56 10 C56 8.68 56 7.36 56 6 C57.98 6 59.96 6 62 6 C62 8.64 62 11.28 62 14 C59.34271875 15.73745313 58.10399645 16.00831972 54.875 15.75 C52 15 52 15 50 13 C49.67 13.99 49.34 14.98 49 16 C46.11424181 15.60196439 45.17810487 15.20990931 43.25 12.9375 C42.8375 12.298125 42.425 11.65875 42 11 C41.67 12.32 41.34 13.64 41 15 C39.68 15 38.36 15 37 15 C36.505 14.01 36.505 14.01 36 13 C35.46375 13.515625 34.9275 14.03125 34.375 14.5625 C32 16 32 16 28.875 15.8125 C26 15 26 15 24 13 C23.67 13.66 23.34 14.32 23 15 C21.35 15 19.7 15 18 15 C17.67 13.02 17.34 11.04 17 9 C16.01 11.31 15.02 13.62 14 16 C11 15 11 15 9 12 C8.34 13.32 7.68 14.64 7 16 C6.01 15.67 5.02 15.34 4 15 C2.83203125 12.12890625 2.83203125 12.12890625 1.8125 8.5625 C1.29623047 6.80099609 1.29623047 6.80099609 0.76953125 5.00390625 C0 2 0 2 0 0 Z M28 4 C27.3121764 6.35367713 27.3121764 6.35367713 27 9 C27.99 10.485 27.99 10.485 29 12 C29.99 11.67 30.98 11.34 32 11 C32 8.69 32 6.38 32 4 C30.68 4 29.36 4 28 4 Z " fill="#5B6160" transform="translate(63,14)"/>
<path d="M0 0 C1.60875 -0.04125 3.2175 -0.0825 4.875 -0.125 C5.77992188 -0.14820313 6.68484375 -0.17140625 7.6171875 -0.1953125 C10 0 10 0 12 2 C12.20872719 4.78302919 12.25640898 6.48718205 11 9 C11.33 9.66 11.66 10.32 12 11 C12.33 7.37 12.66 3.74 13 0 C16.66666667 0 20.33333333 0 24 0 C24.72316406 -0.02320313 25.44632813 -0.04640625 26.19140625 -0.0703125 C26.97386719 -0.08835937 27.75632813 -0.10640625 28.5625 -0.125 C29.74005859 -0.15980469 29.74005859 -0.15980469 30.94140625 -0.1953125 C33 0 33 0 35 2 C35.20872719 4.78302919 35.25640898 6.48718205 34 9 C34.495 9.99 34.495 9.99 35 11 C35.33 7.37 35.66 3.74 36 0 C37.32 0 38.64 0 40 0 C40 4.95 40 9.9 40 15 C33.9453125 15.1953125 33.9453125 15.1953125 32 15 C31.34 14.34 30.68 13.68 30 13 C29.67 13.66 29.34 14.32 29 15 C26.4375 15.625 26.4375 15.625 24 16 C23.67 13.69 23.34 11.38 23 9 C22.67 9.33 22.34 9.66 22 10 C20.33382885 10.04063832 18.66611905 10.042721 17 10 C17 11.65 17 13.3 17 15 C10.9453125 15.1953125 10.9453125 15.1953125 9 15 C8.34 14.34 7.68 13.68 7 13 C6.67 13.66 6.34 14.32 6 15 C4.02 15 2.04 15 0 15 C0 10.05 0 5.1 0 0 Z M6 4 C6.33 4.66 6.66 5.32 7 6 C7.33 5.34 7.66 4.68 8 4 C7.34 4 6.68 4 6 4 Z M17 4 C17.33 4.99 17.66 5.98 18 7 C18.33 6.01 18.66 5.02 19 4 C18.34 4 17.68 4 17 4 Z M29 4 C29.33 4.66 29.66 5.32 30 6 C30.33 5.34 30.66 4.68 31 4 C30.34 4 29.68 4 29 4 Z " fill="#1C1B1B" transform="translate(176,14)"/>
<path d="M0 0 C0 1.32 0 2.64 0 4 C-0.99 4.33 -1.98 4.66 -3 5 C-1.68 5.99 -0.36 6.98 1 8 C1.33 5.36 1.66 2.72 2 0 C8.33333333 0 14.66666667 0 21 0 C21 1.32 21 2.64 21 4 C19.68 4.33 18.36 4.66 17 5 C17.639375 5.20625 18.27875 5.4125 18.9375 5.625 C21 7 21 7 21.75 10.125 C21.87375 11.548125 21.87375 11.548125 22 13 C19.32299693 15.7260581 18.08255485 15.99839617 14.1796875 16.07421875 C12.74340568 15.96180259 11.30837152 15.83237565 9.875 15.6875 C9.14667969 15.62626953 8.41835937 15.56503906 7.66796875 15.50195312 C5.77792425 15.34299374 3.88887669 15.17228216 2 15 C-0.18108908 14.93857049 -0.18108908 14.93857049 -3 15.5625 C-6 16 -6 16 -8 15 C-8 13.68 -8 12.36 -8 11 C-5.525 11.495 -5.525 11.495 -3 12 C-3.825 11.29875 -4.65 10.5975 -5.5 9.875 C-8 7 -8 7 -8.3125 3.6875 C-8.209375 2.800625 -8.10625 1.91375 -8 1 C-5.29120665 -0.35439668 -2.99066732 -0.06501451 0 0 Z M6 4 C7.32 4.33 8.64 4.66 10 5 C10 6.32 10 7.64 10 9 C8.68 9 7.36 9 6 9 C6 9.99 6 10.98 6 12 C9.96 12 13.92 12 18 12 C17.195625 11.236875 16.39125 10.47375 15.5625 9.6875 C13 7 13 7 12 4 C10.02 4 8.04 4 6 4 Z " fill="#344049" transform="translate(225,14)"/>
<path d="M0 0 C0.99 0 1.98 0 3 0 C3.66 1.65 4.32 3.3 5 5 C5.66 3.35 6.32 1.7 7 0 C7.99 0 8.98 0 10 0 C10.66 2.64 11.32 5.28 12 8 C13.77706209 5.33440687 14.87548273 2.9719385 16 0 C17.32 0 18.64 0 20 0 C20.83739781 2.1234016 21.66980283 4.2487728 22.5 6.375 C22.9640625 7.55835938 23.428125 8.74171875 23.90625 9.9609375 C25 13 25 13 25 15 C23.35 15 21.7 15 20 15 C20 14.34 20 13.68 20 13 C18.68 13 17.36 13 16 13 C16 13.66 16 14.32 16 15 C11.66666667 15 7.33333333 15 3 15 C2.67 14.34 2.34 13.68 2 13 C1.67 13.66 1.34 14.32 1 15 C-0.65391846 15.39171753 -2.32345271 15.72057545 -4 16 C-4.99 16.33 -5.98 16.66 -7 17 C-7.66 15.35 -8.32 13.7 -9 12 C-4.125 11 -4.125 11 -3 11 C-2.86722656 10.28972656 -2.73445313 9.57945313 -2.59765625 8.84765625 C-2.42105469 7.92855469 -2.24445312 7.00945313 -2.0625 6.0625 C-1.88847656 5.14597656 -1.71445312 4.22945312 -1.53515625 3.28515625 C-1 1 -1 1 0 0 Z " fill="#38434B" transform="translate(40,14)"/>
<path d="M0 0 C1.60875 -0.04125 3.2175 -0.0825 4.875 -0.125 C5.77992188 -0.14820313 6.68484375 -0.17140625 7.6171875 -0.1953125 C10 0 10 0 12 2 C12.20872719 4.78302919 12.25640898 6.48718205 11 9 C11.33 9.66 11.66 10.32 12 11 C12.33 7.37 12.66 3.74 13 0 C13.33 0 13.66 0 14 0 C14 4.95 14 9.9 14 15 C12.35 15 10.7 15 9 15 C8.34 14.34 7.68 13.68 7 13 C6.67 13.66 6.34 14.32 6 15 C4.02 15 2.04 15 0 15 C0 10.05 0 5.1 0 0 Z M6 4 C6.33 4.66 6.66 5.32 7 6 C7.33 5.34 7.66 4.68 8 4 C7.34 4 6.68 4 6 4 Z " fill="#403D38" transform="translate(176,14)"/>
<path d="M0 0 C1.65 0 3.3 0 5 0 C5.33 0.99 5.66 1.98 6 3 C6.66 2.01 7.32 1.02 8 0 C8.99 0 9.98 0 11 0 C11.66 0.99 12.32 1.98 13 3 C13.33 2.01 13.66 1.02 14 0 C14.99 0 15.98 0 17 0 C16.46148032 5.27749285 15.22656164 9.25645564 13 14 C11 11 11 11 11 9 C10.34 9 9.68 9 9 9 C8.67 10.98 8.34 12.96 8 15 C6.68 15 5.36 15 4 15 C3.3299166 12.87607494 2.66403203 10.75082476 2 8.625 C1.62875 7.44164062 1.2575 6.25828125 0.875 5.0390625 C0 2 0 2 0 0 Z " fill="#46453F" transform="translate(63,14)"/>
<path d="M0 0 C0.99 0 1.98 0 3 0 C3.28875 0.763125 3.5775 1.52625 3.875 2.3125 C4.96269013 5.15029308 4.96269013 5.15029308 7 8 C7.66 8 8.32 8 9 8 C9 10.31 9 12.62 9 15 C7.35 15.33 5.7 15.66 4 16 C3.34 15.01 2.68 14.02 2 13 C1.67 13.66 1.34 14.32 1 15 C-0.65391846 15.39171753 -2.32345271 15.72057545 -4 16 C-4.99 16.33 -5.98 16.66 -7 17 C-7.66 15.35 -8.32 13.7 -9 12 C-4.125 11 -4.125 11 -3 11 C-2.86722656 10.28972656 -2.73445313 9.57945313 -2.59765625 8.84765625 C-2.42105469 7.92855469 -2.24445312 7.00945313 -2.0625 6.0625 C-1.88847656 5.14597656 -1.71445312 4.22945312 -1.53515625 3.28515625 C-1 1 -1 1 0 0 Z " fill="#565651" transform="translate(40,14)"/>
<path d="M0 0 C3.0182722 0.05418801 4.04925828 0.22609892 6.6875 1.875 C8.77142818 5.26138329 8.74552097 7.40635318 8.1875 11.3125 C6.6875 13.75 6.6875 13.75 4.1875 15.3125 C1.42904167 15.63361824 -1.01793968 15.49880402 -3.8125 15.3125 C-4.00640729 13.00052845 -4.19246367 10.6878971 -4.375 8.375 C-4.53162109 6.44333984 -4.53162109 6.44333984 -4.69140625 4.47265625 C-4.73136719 3.42980469 -4.77132813 2.38695312 -4.8125 1.3125 C-3.8125 0.3125 -3.8125 0.3125 0 0 Z M0.1875 4.3125 C0.1875 6.9525 0.1875 9.5925 0.1875 12.3125 C1.1775 11.9825 2.1675 11.6525 3.1875 11.3125 C3.1875 9.0025 3.1875 6.6925 3.1875 4.3125 C2.1975 4.3125 1.2075 4.3125 0.1875 4.3125 Z " fill="#3B342D" transform="translate(22.8125,13.6875)"/>
<path d="M0 0 C0 1.32 0 2.64 0 4 C-0.99 4.33 -1.98 4.66 -3 5 C-1.68 5.99 -0.36 6.98 1 8 C1.33 5.36 1.66 2.72 2 0 C2.33 0 2.66 0 3 0 C3 4.95 3 9.9 3 15 C2.01 15 1.02 15 0 15 C-1.010625 15.185625 -2.02125 15.37125 -3.0625 15.5625 C-6 16 -6 16 -8 15 C-8 13.68 -8 12.36 -8 11 C-5.525 11.495 -5.525 11.495 -3 12 C-3.825 11.29875 -4.65 10.5975 -5.5 9.875 C-8 7 -8 7 -8.3125 3.6875 C-8.209375 2.800625 -8.10625 1.91375 -8 1 C-5.29120665 -0.35439668 -2.99066732 -0.06501451 0 0 Z " fill="#5E5E5B" transform="translate(225,14)"/>
<path d="M0 0 C3.3 0 6.6 0 10 0 C9.67 2.97 9.34 5.94 9 9 C7.35 9 5.7 9 4 9 C4 9.99 4 10.98 4 12 C5.98 12 7.96 12 10 12 C10 12.99 10 13.98 10 15 C6.7 15 3.4 15 0 15 C0 10.05 0 5.1 0 0 Z " fill="#443E36" transform="translate(131,14)"/>
<path d="M0 0 C2.97 0 5.94 0 9 0 C8.67 2.97 8.34 5.94 8 9 C6.68 9 5.36 9 4 9 C4 9.99 4 10.98 4 12 C5.65 12 7.3 12 9 12 C9 12.99 9 13.98 9 15 C6.03 15 3.06 15 0 15 C0 10.05 0 5.1 0 0 Z " fill="#191514" transform="translate(167,14)"/>
<path d="M0 0 C4.29 0 8.58 0 13 0 C13 4.95 13 9.9 13 15 C12.67 15 12.34 15 12 15 C12 11.37 12 7.74 12 4 C10.68 4 9.36 4 8 4 C8 7.63 8 11.26 8 15 C6.68 15 5.36 15 4 15 C4 11.37 4 7.74 4 4 C2.68 4 1.36 4 0 4 C0 2.68 0 1.36 0 0 Z " fill="#3A3731" transform="translate(154,14)"/>
<path d="M0 0 C2.64 0 5.28 0 8 0 C7.67 2.97 7.34 5.94 7 9 C5.68 9 4.36 9 3 9 C3 9.99 3 10.98 3 12 C4.98 12 6.96 12 9 12 C9 12.99 9 13.98 9 15 C6.03 15 3.06 15 0 15 C0 10.05 0 5.1 0 0 Z " fill="#0D131A" transform="translate(228,14)"/>
<path d="M0 0 C1.32 0 2.64 0 4 0 C4 4.95 4 9.9 4 15 C-2.0546875 15.1953125 -2.0546875 15.1953125 -4 15 C-4.66 14.34 -5.32 13.68 -6 13 C-6.66 13.66 -7.32 14.32 -8 15 C-8 13.02 -8 11.04 -8 9 C-6.35 8.67 -4.7 8.34 -3 8 C-2.01 9.485 -2.01 9.485 -1 11 C-0.67 7.37 -0.34 3.74 0 0 Z " fill="#5C5644" transform="translate(212,14)"/>
<path d="M0 0 C0.99 0 1.98 0 3 0 C3.99 3.3 4.98 6.6 6 10 C6.99 9.34 7.98 8.68 9 8 C9 8.66 9 9.32 9 10 C10.65 10.33 12.3 10.66 14 11 C14 11.33 14 11.66 14 12 C12.02 12 10.04 12 8 12 C8 12.99 8 13.98 8 15 C6.02 15 4.04 15 2 15 C2 12.69 2 10.38 2 8 C1.01 8.33 0.02 8.66 -1 9 C-1.09765625 2.84765625 -1.09765625 2.84765625 -1 1 C-0.67 0.67 -0.34 0.34 0 0 Z M13 8 C13.66 8.66 14.32 9.32 15 10 C14.34 10 13.68 10 13 10 C13 9.34 13 8.68 13 8 Z " fill="#292724" transform="translate(47,14)"/>
<path d="M0 0 C1.231394 2.46278801 1.07159196 4.2795055 1 7 C3.475 7.99 3.475 7.99 6 9 C6 8.34 6 7.68 6 7 C5.34 7 4.68 7 4 7 C4 5.68 4 4.36 4 3 C5.98 3 7.96 3 10 3 C10 5.64 10 8.28 10 11 C7.24075815 12.80411967 6.11027897 13.0127245 2.75 12.625 C1.38875 12.315625 1.38875 12.315625 0 12 C-1.29449495 8.11651516 -1.13203312 5.09302664 -1 1 C-0.67 0.67 -0.34 0.34 0 0 Z " fill="#4B473F" transform="translate(115,17)"/>
<path d="M0 0 C2.31 0 4.62 0 7 0 C8 1 8 1 8.0625 4.0625 C8.041875 5.031875 8.02125 6.00125 8 7 C7.34 7 6.68 7 6 7 C5.67 6.01 5.34 5.02 5 4 C4.01 3.67 3.02 3.34 2 3 C2 4.65 2 6.3 2 8 C2.99 8 3.98 8 5 8 C5 8.66 5 9.32 5 10 C4.34 10 3.68 10 3 10 C3 11.65 3 13.3 3 15 C2.01 15 1.02 15 0 15 C0 10.05 0 5.1 0 0 Z " fill="#0D0E11" transform="translate(190,14)"/>
<path d="M0 0 C1.65 0 3.3 0 5 0 C5.19658808 1.41543415 5.38187546 2.83244031 5.5625 4.25 C5.66691406 5.03890625 5.77132812 5.8278125 5.87890625 6.640625 C6.00027349 9.00532874 5.69633257 10.7511037 5 13 C5.66 13 6.32 13 7 13 C7.66 11.68 8.32 10.36 9 9 C8.67 10.98 8.34 12.96 8 15 C6.68 15 5.36 15 4 15 C3.3299166 12.87607494 2.66403203 10.75082476 2 8.625 C1.62875 7.44164062 1.2575 6.25828125 0.875 5.0390625 C0 2 0 2 0 0 Z " fill="#54422F" transform="translate(63,14)"/>
<path d="M0 0 C2.475 0.495 2.475 0.495 5 1 C5.33 2.65 5.66 4.3 6 6 C5.34 6 4.68 6 4 6 C4 8.97 4 11.94 4 15 C2.68 15 1.36 15 0 15 C0 10.05 0 5.1 0 0 Z " fill="#646059" transform="translate(141,14)"/>
<path d="M0 0 C0 5.28 0 10.56 0 16 C-0.33 16 -0.66 16 -1 16 C-1.33 13.69 -1.66 11.38 -2 9 C-3.32 9.33 -4.64 9.66 -6 10 C-6 9.34 -6 8.68 -6 8 C-6.99 8 -7.98 8 -9 8 C-9 6.35 -9 4.7 -9 3 C-7.68 3.33 -6.36 3.66 -5 4 C-5 4.99 -5 5.98 -5 7 C-4.34 7 -3.68 7 -3 7 C-3 5.02 -3 3.04 -3 1 C-1 0 -1 0 0 0 Z M-8 4 C-7.67 4.99 -7.34 5.98 -7 7 C-6.67 6.01 -6.34 5.02 -6 4 C-6.66 4 -7.32 4 -8 4 Z " fill="#6F7775" transform="translate(201,14)"/>
<path d="M0 0 C0.33 0 0.66 0 1 0 C1 4.95 1 9.9 1 15 C-0.65 15 -2.3 15 -4 15 C-4.66 14.34 -5.32 13.68 -6 13 C-6.66 13.66 -7.32 14.32 -8 15 C-8 13.02 -8 11.04 -8 9 C-6.35 8.67 -4.7 8.34 -3 8 C-2.01 9.485 -2.01 9.485 -1 11 C-0.67 7.37 -0.34 3.74 0 0 Z " fill="#6C6A5E" transform="translate(189,14)"/>
<path d="M0 0 C0.66 0.66 1.32 1.32 2 2 C1.8125 4.5 1.8125 4.5 1 7 C-2 9 -2 9 -5.1875 8.625 C-6.5796875 8.315625 -6.5796875 8.315625 -8 8 C-7.67 6.68 -7.34 5.36 -7 4 C-5.68 4 -4.36 4 -3 4 C-3.99 3.01 -4.98 2.02 -6 1 C-4.68 1 -3.36 1 -2 1 C-1.67 1.66 -1.34 2.32 -1 3 C-0.67 2.01 -0.34 1.02 0 0 Z " fill="#4D5150" transform="translate(245,21)"/>
<path d="M0 0 C0.66 0 1.32 0 2 0 C2 4.62 2 9.24 2 14 C1.67 14 1.34 14 1 14 C0.67 12.35 0.34 10.7 0 9 C-0.99 11.31 -1.98 13.62 -3 16 C-3.99 15.67 -4.98 15.34 -6 15 C-6.33 13.02 -6.66 11.04 -7 9 C-6.01 10.32 -5.02 11.64 -4 13 C-2.68 8.71 -1.36 4.42 0 0 Z " fill="#8C7D5E" transform="translate(80,14)"/>
<path d="M0 0 C1.32 0 2.64 0 4 0 C4 4.95 4 9.9 4 15 C3.01 15 2.02 15 1 15 C0.67 10.05 0.34 5.1 0 0 Z " fill="#202A33" transform="translate(212,14)"/>
<path d="M0 0 C0.99 0 1.98 0 3 0 C3 4.95 3 9.9 3 15 C1.68 14.67 0.36 14.34 -1 14 C-0.67 9.38 -0.34 4.76 0 0 Z " fill="#1B1B1C" transform="translate(82,14)"/>
<path d="M0 0 C0.99 0 1.98 0 3 0 C3.33 3.3 3.66 6.6 4 10 C3.21625 9.814375 2.4325 9.62875 1.625 9.4375 C-0.97089775 8.74037734 -0.97089775 8.74037734 -3 10 C-2.01 6.7 -1.02 3.4 0 0 Z " fill="#4A4339" transform="translate(56,14)"/>
<path d="M0 0 C0.66 0 1.32 0 2 0 C2 5.28 2 10.56 2 16 C1.01 15.67 0.02 15.34 -1 15 C-1.33 13.02 -1.66 11.04 -2 9 C-1.34 9 -0.68 9 0 9 C0 6.03 0 3.06 0 0 Z " fill="#333942" transform="translate(109,14)"/>
<path d="M0 0 C0.99 0.33 1.98 0.66 3 1 C3 2.98 3 4.96 3 7 C-2.75 8.125 -2.75 8.125 -5 7 C-5 5.68 -5 4.36 -5 3 C-2.03 3.495 -2.03 3.495 1 4 C0.67 2.68 0.34 1.36 0 0 Z " fill="#323231" transform="translate(222,22)"/>
<path d="M0 0 C4.875 1.75 4.875 1.75 6 4 C6.35294118 10.47058824 6.35294118 10.47058824 4 14 C3.34 13.67 2.68 13.34 2 13 C2.33 12.67 2.66 12.34 3 12 C3.07179964 10.48071962 3.08392007 8.95832518 3.0625 7.4375 C3.05347656 6.61121094 3.04445313 5.78492188 3.03515625 4.93359375 C3.02355469 4.29550781 3.01195312 3.65742188 3 3 C2.67 5.31 2.34 7.62 2 10 C1.67 10 1.34 10 1 10 C1 8.02 1 6.04 1 4 C0.01 3.67 -0.98 3.34 -2 3 C-1.34 2.67 -0.68 2.34 0 2 C0 1.34 0 0.68 0 0 Z " fill="#3A5B73" transform="translate(25,14)"/>
<path d="M0 0 C0.66 0 1.32 0 2 0 C2 5.28 2 10.56 2 16 C0.68 15.67 -0.64 15.34 -2 15 C-2.33 14.01 -2.66 13.02 -3 12 C-2.34 12 -1.68 12 -1 12 C-0.67 8.04 -0.34 4.08 0 0 Z " fill="#596E7F" transform="translate(152,14)"/>
<path d="M0 0 C0.33 0.99 0.66 1.98 1 3 C1.66 3.33 2.32 3.66 3 4 C2.34 5.65 1.68 7.3 1 9 C3.31 9 5.62 9 8 9 C8 9.99 8 10.98 8 12 C5.36 12 2.72 12 0 12 C0 8.04 0 4.08 0 0 Z " fill="#020305" transform="translate(168,17)"/>
<path d="M0 0 C0.66 0 1.32 0 2 0 C1.46148032 5.27749285 0.22656164 9.25645564 -2 14 C-3.74627478 11.38058783 -4.38722388 9.96175123 -5 7 C-3.68 7 -2.36 7 -1 7 C-0.67 4.69 -0.34 2.38 0 0 Z " fill="#12100F" transform="translate(78,14)"/>
<path d="M0 0 C0.99 0.33 1.98 0.66 3 1 C3.33 2.65 3.66 4.3 4 6 C3.34 6 2.68 6 2 6 C2 8.97 2 11.94 2 15 C1.34 15 0.68 15 0 15 C0 10.05 0 5.1 0 0 Z " fill="#13161A" transform="translate(101,14)"/>
<path d="M0 0 C2.875 -0.125 2.875 -0.125 6 0 C8 2 8 2 8.125 4.625 C8.08375 5.40875 8.0425 6.1925 8 7 C7.01 7.495 7.01 7.495 6 8 C5.67 7.34 5.34 6.68 5 6 C4.34 5.67 3.68 5.34 3 5 C2.67 5.33 2.34 5.66 2 6 C0 2.25 0 2.25 0 0 Z " fill="#48565B" transform="translate(203,14)"/>
<path d="M0 0 C2.875 -0.125 2.875 -0.125 6 0 C8 2 8 2 8.125 4.625 C8.08375 5.40875 8.0425 6.1925 8 7 C7.01 7.495 7.01 7.495 6 8 C5.67 7.34 5.34 6.68 5 6 C4.34 5.67 3.68 5.34 3 5 C2.67 5.33 2.34 5.66 2 6 C0 2.25 0 2.25 0 0 Z " fill="#45535A" transform="translate(180,14)"/>
<path d="M0 0 C2.64 0 5.28 0 8 0 C8 1.32 8 2.64 8 4 C6.02 4 4.04 4 2 4 C2 4.99 2 5.98 2 7 C1.34 7 0.68 7 0 7 C0 4.69 0 2.38 0 0 Z " fill="#050506" transform="translate(133,14)"/>
<path d="M0 0 C0.99 0.495 0.99 0.495 2 1 C4.09821215 0.60061233 4.09821215 0.60061233 6 0 C6 2.31 6 4.62 6 7 C4.35 7.33 2.7 7.66 1 8 C0.67 5.36 0.34 2.72 0 0 Z " fill="#484B4A" transform="translate(43,22)"/>
<path d="M0 0 C0 0.66 0 1.32 0 2 C-1.32 2 -2.64 2 -4 2 C-4 3.32 -4 4.64 -4 6 C-4.99 6 -5.98 6 -7 6 C-7 4.02 -7 2.04 -7 0 C-4.3333581 -1.33332095 -2.83319697 -0.67102033 0 0 Z " fill="#2B241E" transform="translate(224,15)"/>
<path d="M0 0 C1.4540625 0.0309375 1.4540625 0.0309375 2.9375 0.0625 C2.6875 1.9375 2.6875 1.9375 1.9375 4.0625 C-0.125 5.3125 -0.125 5.3125 -2.0625 6.0625 C-2.7225 4.4125 -3.3825 2.7625 -4.0625 1.0625 C-3.0625 0.0625 -3.0625 0.0625 0 0 Z " fill="#6E6E64" transform="translate(35.0625,24.9375)"/>
<path d="M0 0 C1.98 0 3.96 0 6 0 C6 3.3 6 6.6 6 10 C5.34 10 4.68 10 4 10 C3.67 7.69 3.34 5.38 3 3 C2.01 2.67 1.02 2.34 0 2 C0 1.34 0 0.68 0 0 Z " fill="#191919" transform="translate(92,15)"/>
<path d="M0 0 C0.33 0.66 0.66 1.32 1 2 C3.52733235 2.65555119 3.52733235 2.65555119 6 3 C6 3.33 6 3.66 6 4 C4.02 4 2.04 4 0 4 C0 4.99 0 5.98 0 7 C-0.66 7 -1.32 7 -2 7 C-2.125 4.625 -2.125 4.625 -2 2 C-1.34 1.34 -0.68 0.68 0 0 Z M5 0 C5.66 0.66 6.32 1.32 7 2 C6.34 2 5.68 2 5 2 C5 1.34 5 0.68 5 0 Z " fill="#0B0A09" transform="translate(55,22)"/>
<path d="M0 0 C1.65 0.33 3.3 0.66 5 1 C5 2.32 5 3.64 5 5 C3.68 5 2.36 5 1 5 C1 5.99 1 6.98 1 8 C0.34 8 -0.32 8 -1 8 C-0.67 5.36 -0.34 2.72 0 0 Z " fill="#243845" transform="translate(170,18)"/>
<path d="M0 0 C2.64 0 5.28 0 8 0 C8 1.32 8 2.64 8 4 C5.69 3.67 3.38 3.34 1 3 C0.67 2.01 0.34 1.02 0 0 Z " fill="#010101" transform="translate(228,14)"/>
<path d="M0 0 C0.66 0.33 1.32 0.66 2 1 C1.67 1.66 1.34 2.32 1 3 C3.475 3.99 3.475 3.99 6 5 C6 6.98 6 8.96 6 11 C4 8 4 8 4 6 C2.68 6 1.36 6 0 6 C-1 3 -1 3 0 0 Z " fill="#111315" transform="translate(239,16)"/>
<path d="M0 0 C1.32 0 2.64 0 4 0 C4 2.31 4 4.62 4 7 C2.35 7 0.7 7 -1 7 C-0.34 6.67 0.32 6.34 1 6 C0.67 4.02 0.34 2.04 0 0 Z " fill="#08141F" transform="translate(121,21)"/>
<path d="M0 0 C1.65 0 3.3 0 5 0 C5.33 1.65 5.66 3.3 6 5 C5.01 5 4.02 5 3 5 C3 4.34 3 3.68 3 3 C1.68 3 0.36 3 -1 3 C-0.67 2.01 -0.34 1.02 0 0 Z " fill="#373C3E" transform="translate(118,14)"/>
<path d="M0 0 C1.3921875 0.0928125 1.3921875 0.0928125 2.8125 0.1875 C2.8125 1.1775 2.8125 2.1675 2.8125 3.1875 C-0.1575 3.1875 -3.1275 3.1875 -6.1875 3.1875 C-3.1875 0.1875 -3.1875 0.1875 0 0 Z " fill="#060A0F" transform="translate(234.1875,25.8125)"/>
<path d="M0 0 C0.33 0 0.66 0 1 0 C2.13764351 4.26616316 3 7.56486311 3 12 C2.01 12 1.02 12 0 12 C0 8.04 0 4.08 0 0 Z " fill="#42535E" transform="translate(50,17)"/>
<path d="M0 0 C0 0.99 0 1.98 0 3 C-2.64 3 -5.28 3 -8 3 C-8 2.34 -8 1.68 -8 1 C-5.29120665 -0.35439668 -2.99066732 -0.06501451 0 0 Z " fill="#040507" transform="translate(141,26)"/>
<path d="M0 0 C1.32 0 2.64 0 4 0 C4.33 0.99 4.66 1.98 5 3 C3.68 3 2.36 3 1 3 C1 5.97 1 8.94 1 12 C0.67 12 0.34 12 0 12 C0 8.04 0 4.08 0 0 Z " fill="#050607" transform="translate(21,14)"/>
<path d="M0 0 C1 3 1 3 0.0625 5.1875 C-0.4634375 6.0846875 -0.4634375 6.0846875 -1 7 C-1.99 6.67 -2.98 6.34 -4 6 C-4.33 4.35 -4.66 2.7 -5 1 C-4.34 1 -3.68 1 -3 1 C-3 1.99 -3 2.98 -3 4 C-2.34 4 -1.68 4 -1 4 C-0.67 2.68 -0.34 1.36 0 0 Z " fill="#686E6F" transform="translate(71,23)"/>
<path d="M0 0 C0.33 0 0.66 0 1 0 C1 4.62 1 9.24 1 14 C0.67 13.34 0.34 12.68 0 12 C-0.66 12 -1.32 12 -2 12 C-2 11.01 -2 10.02 -2 9 C-1.34 9 -0.68 9 0 9 C0 6.03 0 3.06 0 0 Z " fill="#070402" transform="translate(151,14)"/>
<path d="M0 0 C0.33 0 0.66 0 1 0 C1 4.62 1 9.24 1 14 C0.67 13.34 0.34 12.68 0 12 C-0.66 12 -1.32 12 -2 12 C-2 11.01 -2 10.02 -2 9 C-1.34 9 -0.68 9 0 9 C0 6.03 0 3.06 0 0 Z " fill="#050302" transform="translate(109,14)"/>
<path d="M0 0 C1.23723976 2.47447952 1 4.2553349 1 7 C1.33 7.99 1.66 8.98 2 10 C2.66 10.33 3.32 10.66 4 11 C2.68 11 1.36 11 0 11 C-1.62651522 7.74696956 -1.11453156 4.60774398 -1 1 C-0.67 0.67 -0.34 0.34 0 0 Z " fill="#060708" transform="translate(115,17)"/>
<path d="M0 0 C2.29013653 3.4352048 2.17842973 4.985331 2 9 C1.01 9.495 1.01 9.495 0 10 C-1.125 3.375 -1.125 3.375 0 0 Z " fill="#32424F" transform="translate(67,14)"/>
<path d="M0 0 C2.18975773 3.28463659 2.99806563 6.20696275 4 10 C2.68 9.34 1.36 8.68 0 8 C0 5.36 0 2.72 0 0 Z " fill="#415A6F" transform="translate(59,14)"/>
<path d="M0 0 C2.475 0.99 2.475 0.99 5 2 C4.01 2.495 4.01 2.495 3 3 C2.59270772 5.32156597 2.25561323 7.6568787 2 10 C1.67 10 1.34 10 1 10 C1 8.02 1 6.04 1 4 C0.01 3.67 -0.98 3.34 -2 3 C-1.34 2.67 -0.68 2.34 0 2 C0 1.34 0 0.68 0 0 Z " fill="#777C79" transform="translate(25,14)"/>
<path d="M0 0 C1.66666667 0 3.33333333 0 5 0 C5 0.66 5 1.32 5 2 C4.34 2 3.68 2 3 2 C3 3.98 3 5.96 3 8 C2.34 7.67 1.68 7.34 1 7 C0.59270772 4.67843403 0.25561323 2.3431213 0 0 Z " fill="#625949" transform="translate(236,14)"/>
<path d="M0 0 C1.32 0.33 2.64 0.66 4 1 C4 2.98 4 4.96 4 7 C3.34 7 2.68 7 2 7 C1.34 4.69 0.68 2.38 0 0 Z " fill="#1B1D20" transform="translate(194,14)"/>
<path d="M0 0 C1.485 0.99 1.485 0.99 3 2 C3 2.66 3 3.32 3 4 C2.34 4 1.68 4 1 4 C1 6.97 1 9.94 1 13 C0.67 13 0.34 13 0 13 C0 8.71 0 4.42 0 0 Z " fill="#02060A" transform="translate(144,16)"/>
<path d="M0 0 C0.66 0 1.32 0 2 0 C2 2.97 2 5.94 2 9 C1.01 8.01 0.02 7.02 -1 6 C-0.6875 2.8125 -0.6875 2.8125 0 0 Z " fill="#929080" transform="translate(107,14)"/>
<path d="M0 0 C0.66 0 1.32 0 2 0 C2.33 2.31 2.66 4.62 3 7 C2.01 7 1.02 7 0 7 C0 4.69 0 2.38 0 0 Z " fill="#13100E" transform="translate(40,14)"/>
</svg>
