<?xml version="1.0" encoding="UTF-8"?>
<svg version="1.1" xmlns="http://www.w3.org/2000/svg" width="267" height="45">
<path d="M0 0 C88.11 0 176.22 0 267 0 C267 14.85 267 29.7 267 45 C178.89 45 90.78 45 0 45 C0 30.15 0 15.3 0 0 Z " fill="#030303" transform="translate(0,0)"/>
<path d="M0 0 C8.72020725 -0.70466321 8.72020725 -0.70466321 13 0 C15.57089392 2.31685302 16.82518228 4.77105315 18 8 C18.33 5.36 18.66 2.72 19 0 C19.66 0 20.32 0 21 0 C21 5.28 21 10.56 21 16 C16 11 16 11 15 9 C14.67 11.31 14.34 13.62 14 16 C9.38 16 4.76 16 0 16 C0 10.72 0 5.44 0 0 Z " fill="#161616" transform="translate(133,14)"/>
<path d="M0 0 C2.97 0 5.94 0 9 0 C9 0.66 9 1.32 9 2 C9.99 1.34 10.98 0.68 12 0 C15.1875 -0.125 15.1875 -0.125 18 0 C18 0.99 18 1.98 18 3 C16.68 3 15.36 3 14 3 C14.69211609 6.09958263 14.69211609 6.09958263 17.0625 7.375 C19 9 19 9 19.375 11.5625 C19 14 19 14 17 16 C14.0906442 16.14517744 11.280054 16.18630796 8.375 16.125 C7.57320312 16.11597656 6.77140625 16.10695313 5.9453125 16.09765625 C3.96341477 16.07406223 1.98167019 16.03819065 0 16 C0 10.72 0 5.44 0 0 Z " fill="#0A0A0A" transform="translate(232,14)"/>
<path d="M0 0 C0.99 0.33 1.98 0.66 3 1 C4.1875 4.0625 4.1875 4.0625 5 7 C5.99 4.69 6.98 2.38 8 0 C8.66 0 9.32 0 10 0 C10.99 4.29 11.98 8.58 13 13 C13.598125 11.040625 14.19625 9.08125 14.8125 7.0625 C15.83203125 3.72265625 15.83203125 3.72265625 17 1 C17.99 0.67 18.98 0.34 20 0 C20.83719383 2.29032311 21.6698929 4.58210957 22.5 6.875 C22.73847656 7.52597656 22.97695313 8.17695313 23.22265625 8.84765625 C25 13.7734375 25 13.7734375 25 16 C23.68 15.67 22.36 15.34 21 15 C21 14.34 21 13.68 21 13 C19.35 13 17.7 13 16 13 C16 13.99 16 14.98 16 16 C14.02 16 12.04 16 10 16 C9.34 14.35 8.68 12.7 8 11 C7.34 12.65 6.68 14.3 6 16 C3.2160817 14.60804085 3.02101003 12.84424221 2 10 C1.67 11.98 1.34 13.96 1 16 C0.01 16 -0.98 16 -2 16 C-1.34 10.72 -0.68 5.44 0 0 Z " fill="#E1E1E1" transform="translate(38,14)"/>
<path d="M0 0 C0.99 0 1.98 0 3 0 C3 0.99 3 1.98 3 3 C3.350625 2.505 3.70125 2.01 4.0625 1.5 C6.94374289 -0.73063966 9.47009026 -0.19980621 13 0 C13 0.99 13 1.98 13 3 C11.35 2.67 9.7 2.34 8 2 C9.11607591 4.60417711 10.03523938 6.03121203 12.1875 7.9375 C14 10 14 10 13.875 12.625 C13 15 13 15 11 17 C7.29100027 16.96658559 3.69044879 16.42912195 0 16 C0 10.72 0 5.44 0 0 Z " fill="#090909" transform="translate(216,14)"/>
<path d="M0 0 C2.13022317 1.59516712 2.90297396 2.48347903 3.3984375 5.12109375 C3.36335329 8.58858294 3.27644823 11.33327192 1.9375 14.5625 C-1.05637032 16.78375862 -3.39637228 16.45864353 -7 16 C-9.14553377 12.78169935 -9.29583868 11.73213493 -9.3125 8 C-9.32925781 7.13375 -9.34601563 6.2675 -9.36328125 5.375 C-9 3 -9 3 -7.66796875 1.2109375 C-5.08254851 -0.66606548 -3.09627067 -0.38703383 0 0 Z " fill="#DFDFDF" transform="translate(95,14)"/>
<path d="M0 0 C8 0 8 0 10 1.5625 C11.6554572 5.59767692 11.6305268 9.28857012 10.125 13.375 C9 15 9 15 7 16 C4.69 16 2.38 16 0 16 C0 10.72 0 5.44 0 0 Z " fill="#CACACA" transform="translate(17,14)"/>
<path d="M0 0 C0.99 0 1.98 0 3 0 C3.99 1.98 4.98 3.96 6 6 C6.66 4.02 7.32 2.04 8 0 C8.66 0 9.32 0 10 0 C10.66 2.31 11.32 4.62 12 7 C12.66 4.69 13.32 2.38 14 0 C14.99 0 15.98 0 17 0 C15.98408579 5.46864457 14.92908943 10.76390013 13 16 C10.10067643 13.60490662 9.49831724 11.68754757 9 8 C8.01 10.64 7.02 13.28 6 16 C5.34 16 4.68 16 4 16 C2.68 10.72 1.36 5.44 0 0 Z " fill="#E5E5E5" transform="translate(62,14)"/>
<path d="M0 0 C2.64 0 5.28 0 8 0 C10 2 10 2 10.1875 4.375 C10 7 10 7 9.375 9 C8.85274271 11.78537219 9.81451065 13.48955196 11 16 C9.125 15.75 9.125 15.75 7 15 C5.875 13 5.875 13 5 11 C4.34 10.67 3.68 10.34 3 10 C3 11.98 3 13.96 3 16 C2.01 16 1.02 16 0 16 C0 10.72 0 5.44 0 0 Z " fill="#D8D8D8" transform="translate(180,14)"/>
<path d="M0 0 C2.64 0 5.28 0 8 0 C9 1 9 1 9.02734375 3.109375 C8.99769531 3.98078125 8.96804687 4.8521875 8.9375 5.75 C8.88735021 9.63939497 9.13245658 12.49835608 11 16 C9.125 15.8125 9.125 15.8125 7 15 C5.75 12.4375 5.75 12.4375 5 10 C4.34 10 3.68 10 3 10 C3 11.98 3 13.96 3 16 C2.01 16 1.02 16 0 16 C0 10.72 0 5.44 0 0 Z " fill="#DEDEDE" transform="translate(204,14)"/>
<path d="M0 0 C3.99996286 1.33332095 4.83782337 3.4957827 7 7 C7.33 4.69 7.66 2.38 8 0 C8.99 0 9.98 0 11 0 C11 5.28 11 10.56 11 16 C7.00003714 14.66667905 6.16217663 12.5042173 4 9 C3.67 11.31 3.34 13.62 3 16 C2.01 16 1.02 16 0 16 C0 10.72 0 5.44 0 0 Z " fill="#CBCBCB" transform="translate(100,14)"/>
<path d="M0 0 C2.64 0 5.28 0 8 0 C10 2 10 2 10.25 5 C10 8 10 8 8 10 C5.375 10.125 5.375 10.125 3 10 C3 11.98 3 13.96 3 16 C2.01 16 1.02 16 0 16 C0 10.72 0 5.44 0 0 Z " fill="#F4F4F4" transform="translate(192,14)"/>
<path d="M0 0 C0.33 0.99 0.66 1.98 1 3 C0.030625 2.979375 -0.93875 2.95875 -1.9375 2.9375 C-4.87465895 2.64381501 -4.87465895 2.64381501 -6 4 C-6.07148199 5.35243917 -6.08399454 6.70834367 -6.0625 8.0625 C-6.041875 9.361875 -6.02125 10.66125 -6 12 C-3.525 12.99 -3.525 12.99 -1 14 C-1 12.68 -1 11.36 -1 10 C-1.66 10 -2.32 10 -3 10 C-3 9.01 -3 8.02 -3 7 C-1.35 7 0.3 7 2 7 C2 9.64 2 12.28 2 15 C-1.0832635 16.54163175 -3.60878099 16.29747535 -7 16 C-9.28677385 14.22959444 -9.86400707 12.93471195 -10.27734375 10.09375 C-10.42852435 6.85243796 -10.21395458 4.50342253 -8.9375 1.5 C-6.03865362 -0.74426817 -3.54614524 -0.2676336 0 0 Z " fill="#D3D3D3" transform="translate(123,14)"/>
<path d="M0 0 C0.66 0 1.32 0 2 0 C3.2890625 1.75 3.2890625 1.75 4.625 4 C5.07101563 4.7425 5.51703125 5.485 5.9765625 6.25 C6.31429687 6.8275 6.65203125 7.405 7 8 C7.33 5.36 7.66 2.72 8 0 C8.66 0 9.32 0 10 0 C10 5.28 10 10.56 10 16 C5 11 5 11 4 9 C3.67 11.31 3.34 13.62 3 16 C2.01 16 1.02 16 0 16 C0 10.72 0 5.44 0 0 Z " fill="#D5D5D5" transform="translate(144,14)"/>
<path d="M0 0 C2.97 0 5.94 0 9 0 C9 0.99 9 1.98 9 3 C7.02 3 5.04 3 3 3 C3 3.99 3 4.98 3 6 C4.65 6 6.3 6 8 6 C8 6.99 8 7.98 8 9 C6.35 9 4.7 9 3 9 C3 10.32 3 11.64 3 13 C4.98 13 6.96 13 9 13 C9 13.99 9 14.98 9 16 C6.03 16 3.06 16 0 16 C0 10.72 0 5.44 0 0 Z " fill="#D0D0D0" transform="translate(169,14)"/>
<path d="M0 0 C2.97 0 5.94 0 9 0 C9 0.99 9 1.98 9 3 C7.02 3 5.04 3 3 3 C3 3.99 3 4.98 3 6 C4.32 6 5.64 6 7 6 C7 6.99 7 7.98 7 9 C5.68 9 4.36 9 3 9 C3 10.32 3 11.64 3 13 C4.98 13 6.96 13 9 13 C9 13.99 9 14.98 9 16 C6.03 16 3.06 16 0 16 C0 10.72 0 5.44 0 0 Z " fill="#D5D5D5" transform="translate(232,14)"/>
<path d="M0 0 C0.66 0 1.32 0 2 0 C2.83719383 2.29032311 3.6698929 4.58210957 4.5 6.875 C4.85771484 7.85146484 4.85771484 7.85146484 5.22265625 8.84765625 C7 13.7734375 7 13.7734375 7 16 C5.68 15.67 4.36 15.34 3 15 C3 14.34 3 13.68 3 13 C1.02 13.33 -0.96 13.66 -3 14 C-3.34615998 8.34605369 -2.43425238 4.96993194 0 0 Z " fill="#E6E6E6" transform="translate(56,14)"/>
<path d="M0 0 C2.31 0 4.62 0 7 0 C7 0.99 7 1.98 7 3 C5.35 2.67 3.7 2.34 2 2 C3.11607591 4.60417711 4.03523938 6.03121203 6.1875 7.9375 C8 10 8 10 7.875 12.625 C7 15 7 15 5 17 C1.875 16.625 1.875 16.625 -1 16 C-0.67 15.01 -0.34 14.02 0 13 C1.65 13 3.3 13 5 13 C4.195625 12.195625 3.39125 11.39125 2.5625 10.5625 C1.375 9.375 0.1875 8.1875 -1 7 C-0.71269945 4.66055264 -0.38063221 2.3260857 0 0 Z " fill="#C9C9C9" transform="translate(222,14)"/>
<path d="M0 0 C2.97 0 5.94 0 9 0 C9 0.99 9 1.98 9 3 C7.02 3 5.04 3 3 3 C3 3.99 3 4.98 3 6 C4.32 6 5.64 6 7 6 C7 6.99 7 7.98 7 9 C5.35 9 3.7 9 2 9 C2 10.65 2 12.3 2 14 C4.31 14 6.62 14 9 14 C9 14.66 9 15.32 9 16 C6.03 16 3.06 16 0 16 C0 10.72 0 5.44 0 0 Z " fill="#DADADA" transform="translate(133,14)"/>
<path d="M0 0 C3.96 0 7.92 0 12 0 C12 0.99 12 1.98 12 3 C10.35 3 8.7 3 7 3 C7 7.29 7 11.58 7 16 C6.01 16 5.02 16 4 16 C4 11.71 4 7.42 4 3 C2.68 3 1.36 3 0 3 C0 2.01 0 1.02 0 0 Z " fill="#D1D1D1" transform="translate(156,14)"/>
<path d="M0 0 C1.4540625 0.0309375 1.4540625 0.0309375 2.9375 0.0625 C2.9375 1.0525 2.9375 2.0425 2.9375 3.0625 C1.6175 3.0625 0.2975 3.0625 -1.0625 3.0625 C-0.37038391 6.16208263 -0.37038391 6.16208263 2 7.4375 C3.9375 9.0625 3.9375 9.0625 4.3125 11.625 C3.9375 14.0625 3.9375 14.0625 1.9375 16.0625 C-1.1875 16.1875 -1.1875 16.1875 -4.0625 16.0625 C-4.0625 15.0725 -4.0625 14.0825 -4.0625 13.0625 C-2.4125 13.3925 -0.7625 13.7225 0.9375 14.0625 C0.58870368 10.80706771 -0.08383261 10.04376893 -2.625 7.8125 C-3.429375 7.235 -4.23375 6.6575 -5.0625 6.0625 C-3.98897059 0.08140756 -3.98897059 0.08140756 0 0 Z " fill="#E3E3E3" transform="translate(247.0625,13.9375)"/>
<path d="M0 0 C2.64 0 5.28 0 8 0 C8.33 0.66 8.66 1.32 9 2 C6 3 6 3 3 2 C3.66 4.31 4.32 6.62 5 9 C4.34 9 3.68 9 3 9 C3 11.31 3 13.62 3 16 C2.01 16 1.02 16 0 16 C0 10.72 0 5.44 0 0 Z " fill="#D4D4D4" transform="translate(180,14)"/>
<path d="M0 0 C1.67542976 0.28604898 3.34385343 0.61781233 5 1 C5 3.64 5 6.28 5 9 C3.34385343 9.38218767 1.67542976 9.71395102 0 10 C-1 9 -1 9 -1.1328125 7.1875 C-1.13023438 6.465625 -1.12765625 5.74375 -1.125 5 C-1.12757812 4.278125 -1.13015625 3.55625 -1.1328125 2.8125 C-1 1 -1 1 0 0 Z " fill="#030303" transform="translate(90,17)"/>
<path d="M0 0 C0.33 0 0.66 0 1 0 C1 5.28 1 10.56 1 16 C0.67 16 0.34 16 0 16 C0 14.02 0 12.04 0 10 C-0.66 10 -1.32 10 -2 10 C-4.625 7.6875 -4.625 7.6875 -7 5 C-7 4.01 -7 3.02 -7 2 C-6.21625 2.04125 -5.4325 2.0825 -4.625 2.125 C-1.83883881 2.28728734 -1.83883881 2.28728734 0 0 Z " fill="#1C1C1C" transform="translate(231,14)"/>
<path d="M0 0 C2.64 0 5.28 0 8 0 C8.33 0.66 8.66 1.32 9 2 C8.34 2 7.68 2 7 2 C7 3.65 7 5.3 7 7 C5.68 7.33 4.36 7.66 3 8 C2.67 6.02 2.34 4.04 2 2 C1.67 6.62 1.34 11.24 1 16 C0.67 16 0.34 16 0 16 C0 10.72 0 5.44 0 0 Z " fill="#A8A8A8" transform="translate(192,14)"/>
<path d="M0 0 C0.99 0 1.98 0 3 0 C3 5.28 3 10.56 3 16 C2.01 16 1.02 16 0 16 C0 10.72 0 5.44 0 0 Z " fill="#D2D2D2" transform="translate(216,14)"/>
<path d="M0 0 C0.99 0 1.98 0 3 0 C3 5.28 3 10.56 3 16 C2.01 16 1.02 16 0 16 C0 10.72 0 5.44 0 0 Z " fill="#C9C9C9" transform="translate(81,14)"/>
<path d="M0 0 C1.4540625 0.0309375 1.4540625 0.0309375 2.9375 0.0625 C1.9475 0.7225 0.9575 1.3825 -0.0625 2.0625 C-0.42547936 4.03997122 -0.42547936 4.03997122 -0.25 6.1875 C-0.188125 7.46625 -0.12625 8.745 -0.0625 10.0625 C1.5875 10.0625 3.2375 10.0625 4.9375 10.0625 C4.9375 10.7225 4.9375 11.3825 4.9375 12.0625 C3.514375 12.0315625 3.514375 12.0315625 2.0625 12 C-0.96916283 11.83698174 -0.96916283 11.83698174 -3.0625 13.0625 C-4.31319801 10.56110398 -4.19552467 8.78857309 -4.1875 6 C-4.19007812 5.10152344 -4.19265625 4.20304687 -4.1953125 3.27734375 C-3.98694593 -0.19747516 -3.55958238 0.07264454 0 0 Z " fill="#BFBFBF" transform="translate(90.0625,15.9375)"/>
<path d="M0 0 C2.475 0.495 2.475 0.495 5 1 C5.13277344 1.61488281 5.26554688 2.22976562 5.40234375 2.86328125 C5.57894531 3.67152344 5.75554687 4.47976562 5.9375 5.3125 C6.19853516 6.51326172 6.19853516 6.51326172 6.46484375 7.73828125 C6.99886159 10.145401 6.99886159 10.145401 8 13 C6.125 12.75 6.125 12.75 4 12 C2.75 9.9375 2.75 9.9375 2 8 C2.66 8 3.32 8 4 8 C4 7.01 4 6.02 4 5 C2.68 5 1.36 5 0 5 C0 3.35 0 1.7 0 0 Z " fill="#979797" transform="translate(207,17)"/>
<path d="M0 0 C2.475 0.495 2.475 0.495 5 1 C5.125 4.375 5.125 4.375 5 8 C4.34 8.66 3.68 9.32 3 10 C2.01 10 1.02 10 0 10 C0 6.7 0 3.4 0 0 Z " fill="#0A0A0A" transform="translate(20,17)"/>
<path d="M0 0 C0.99 0 1.98 0 3 0 C1.98408579 5.46864457 0.92908943 10.76390013 -1 16 C-1.66 15.67 -2.32 15.34 -3 15 C-3 13.02 -3 11.04 -3 9 C-2.34 9 -1.68 9 -1 9 C-0.67 6.03 -0.34 3.06 0 0 Z " fill="#EFEFEF" transform="translate(76,14)"/>
<path d="M0 0 C0.66 0 1.32 0 2 0 C2 5.28 2 10.56 2 16 C0.68 14.68 -0.64 13.36 -2 12 C-2 11.01 -2 10.02 -2 9 C-1.34 9 -0.68 9 0 9 C0 6.03 0 3.06 0 0 Z " fill="#EEEEEE" transform="translate(152,14)"/>
<path d="M0 0 C0.66 0 1.32 0 2 0 C2.99 2.97 3.98 5.94 5 9 C4.34 9 3.68 9 3 9 C2.67 10.32 2.34 11.64 2 13 C1.87625 12.195625 1.7525 11.39125 1.625 10.5625 C1.41875 9.716875 1.2125 8.87125 1 8 C0.34 7.67 -0.32 7.34 -1 7 C-1 7.66 -1 8.32 -1 9 C-1.66 8.67 -2.32 8.34 -3 8 C-2.01 5.36 -1.02 2.72 0 0 Z " fill="#CECECE" transform="translate(70,14)"/>
<path d="M0 0 C1.670625 0.061875 1.670625 0.061875 3.375 0.125 C3.705 1.115 4.035 2.105 4.375 3.125 C3.42625 3.063125 2.4775 3.00125 1.5 2.9375 C-0.046875 3.0303125 -0.046875 3.0303125 -1.625 3.125 C-3.5701 6.04265 -4.07776317 7.75037285 -4.625 11.125 C-4.955 11.125 -5.285 11.125 -5.625 11.125 C-5.67899736 9.66707116 -5.71779177 8.20857288 -5.75 6.75 C-5.78480469 5.53183594 -5.78480469 5.53183594 -5.8203125 4.2890625 C-5.45446636 0.2354873 -3.82558513 0.13191673 0 0 Z " fill="#DEDEDE" transform="translate(119.625,13.875)"/>
<path d="M0 0 C2.31 0 4.62 0 7 0 C6.01 0.33 5.02 0.66 4 1 C4 6.28 4 11.56 4 17 C3.67 17 3.34 17 3 17 C2.93941406 16.39671875 2.87882812 15.7934375 2.81640625 15.171875 C2.73261719 14.37265625 2.64882812 13.5734375 2.5625 12.75 C2.48128906 11.96109375 2.40007812 11.1721875 2.31640625 10.359375 C2.05958718 8.01956386 2.05958718 8.01956386 1.40234375 5.890625 C1 4 1 4 2 1 C1.34 0.67 0.68 0.34 0 0 Z " fill="#262626" transform="translate(77,13)"/>
<path d="M0 0 C0.66 0 1.32 0 2 0 C1.814375 0.70125 1.62875 1.4025 1.4375 2.125 C0.94843024 5.33888698 1.33768442 7.83560336 2 11 C1.01 11 0.02 11 -1 11 C-2.1875 9.4375 -2.1875 9.4375 -3 7 C-1.625 3.25 -1.625 3.25 0 0 Z " fill="#999999" transform="translate(56,14)"/>
<path d="M0 0 C2.64 0 5.28 0 8 0 C8 0.99 8 1.98 8 3 C6.02 3 4.04 3 2 3 C2 3.99 2 4.98 2 6 C1.34 6 0.68 6 0 6 C0 4.02 0 2.04 0 0 Z " fill="#D8D8D8" transform="translate(170,14)"/>
<path d="M0 0 C0.66 0 1.32 0 2 0 C2.04898437 0.77085938 2.09796875 1.54171875 2.1484375 2.3359375 C2.22320313 3.33882812 2.29796875 4.34171875 2.375 5.375 C2.44460937 6.37273438 2.51421875 7.37046875 2.5859375 8.3984375 C2.76363964 11.15508879 2.76363964 11.15508879 5 13 C3.35 13 1.7 13 0 13 C0 8.71 0 4.42 0 0 Z " fill="#F2F2F2" transform="translate(18,17)"/>
<path d="M0 0 C0.99 0 1.98 0 3 0 C3 1.98 3 3.96 3 6 C1.02 6.99 1.02 6.99 -1 8 C-1.66 7.34 -2.32 6.68 -3 6 C-2.34 5.67 -1.68 5.34 -1 5 C-0.34444881 2.47266765 -0.34444881 2.47266765 0 0 Z " fill="#DDDDDD" transform="translate(199,16)"/>
<path d="M0 0 C0.66 0 1.32 0 2 0 C2.33 0.99 2.66 1.98 3 3 C3.66 2.01 4.32 1.02 5 0 C5.33 1.98 5.66 3.96 6 6 C4.02 6 2.04 6 0 6 C0 4.02 0 2.04 0 0 Z " fill="#D2D2D2" transform="translate(48,24)"/>
<path d="M0 0 C0.33 0 0.66 0 1 0 C1 4.95 1 9.9 1 15 C0.01 14.01 -0.98 13.02 -2 12 C-2 10.68 -2 9.36 -2 8 C-1.34 8 -0.68 8 0 8 C0 5.36 0 2.72 0 0 Z " fill="#F4F4F4" transform="translate(109,15)"/>
<path d="M0 0 C0.33 0 0.66 0 1 0 C1 5.28 1 10.56 1 16 C0.01 16 -0.98 16 -2 16 C-1.34 10.72 -0.68 5.44 0 0 Z " fill="#B6B6B6" transform="translate(38,14)"/>
<path d="M0 0 C0.99 0 1.98 0 3 0 C3.66 2.31 4.32 4.62 5 7 C4.01 7.99 3.02 8.98 2 10 C1.34 6.7 0.68 3.4 0 0 Z " fill="#BEBEBE" transform="translate(62,14)"/>
<path d="M0 0 C0.66 0 1.32 0 2 0 C2.66 2.64 3.32 5.28 4 8 C2.68 7.67 1.36 7.34 0 7 C0 4.69 0 2.38 0 0 Z " fill="#D9D9D9" transform="translate(59,22)"/>
<path d="M0 0 C1.4540625 0.0309375 1.4540625 0.0309375 2.9375 0.0625 C2.9375 1.0525 2.9375 2.0425 2.9375 3.0625 C1.98875 3.000625 1.04 2.93875 0.0625 2.875 C-1.484375 2.9678125 -1.484375 2.9678125 -3.0625 3.0625 C-3.7225 4.0525 -4.3825 5.0425 -5.0625 6.0625 C-3.98897059 0.08140756 -3.98897059 0.08140756 0 0 Z " fill="#C3C3C3" transform="translate(247.0625,13.9375)"/>
<path d="M0 0 C0.99 0 1.98 0 3 0 C2.67 2.31 2.34 4.62 2 7 C1.01 7 0.02 7 -1 7 C-0.67 4.69 -0.34 2.38 0 0 Z " fill="#C3C3C3" transform="translate(76,14)"/>
<path d="M0 0 C1.32 0 2.64 0 4 0 C3.67 1.65 3.34 3.3 3 5 C2.01 5 1.02 5 0 5 C0 3.35 0 1.7 0 0 Z " fill="#262626" transform="translate(195,17)"/>
<path d="M0 0 C1.32 0.33 2.64 0.66 4 1 C3.67 2.32 3.34 3.64 3 5 C2.01 5 1.02 5 0 5 C0 3.35 0 1.7 0 0 Z " fill="#333333" transform="translate(183,16)"/>
<path d="M0 0 C1.32 0 2.64 0 4 0 C4 0.99 4 1.98 4 3 C2.68 3 1.36 3 0 3 C-0.33 4.32 -0.66 5.64 -1 7 C-0.67 4.69 -0.34 2.38 0 0 Z " fill="#BBBBBB" transform="translate(235,20)"/>
</svg>
